<svg width="96" height="96" viewBox="0 0 96 96" fill="none" xmlns="http://www.w3.org/2000/svg">
<path d="M0.0185794 46.6307C0.736184 21.1384 22.083 0.0613557 47.8785 0.00013725C74.3941 -0.063632 96.3155 22.1025 95.9963 48.5846C95.6873 74.4086 74.3328 95.654 48.6599 95.9958C21.6744 96.358 -0.737332 73.5005 0.0185794 46.6307Z" fill="black"/>
<path d="M5.56274 40.8354C6.12457 37.5194 8.58894 25.4441 19.6441 16.0215C30.232 6.99946 41.9359 6.17556 45.4013 6.05823V36.8613H38.0286V14.5242C32.508 16.041 27.445 18.8891 23.2847 22.8182C19.1243 26.7473 15.994 31.6371 14.1689 37.0577L45.3247 55.2268L45.4575 89.277C36.828 89.0545 28.4752 86.1901 21.5288 81.0712C10.5298 72.9088 7.06946 61.8869 6.13989 58.474L14.2915 58.6041C16.3356 64.7737 20.0882 70.2385 25.1143 74.3652C28.9005 77.4347 33.303 79.6555 38.0235 80.8774L37.8933 59.2545L5.56274 40.8354Z" fill="white"/>
<path d="M50.4194 6.12201C58.2459 6.37631 65.8429 8.8247 72.3421 13.1874C78.8414 17.55 83.9809 23.651 87.1731 30.793L78.8044 30.7293C76.5254 26.7819 73.4817 23.3278 69.8512 20.5686C66.2206 17.8094 62.0759 15.8006 57.6593 14.6594L57.9147 55.1019L89.4076 37.1929C89.7753 39.7335 90.1448 42.2732 90.5159 44.8121L57.6593 63.953L57.7896 80.7881C62.2536 79.7681 66.4461 77.802 70.0832 75.0229C73.7203 72.2438 76.7171 68.7165 78.8708 64.68L87.1731 64.7234C84.0491 71.9041 78.9366 78.044 72.4371 82.4206C65.9377 86.7971 58.3218 89.2282 50.4858 89.4276C50.4637 61.6633 50.4416 33.8948 50.4194 6.12201Z" fill="white"/>
</svg>
