<svg width="328" height="216" viewBox="0 0 328 216" fill="none" xmlns="http://www.w3.org/2000/svg">
<g clip-path="url(#clip0_61_175)">
<path d="M259.971 127.745C261.329 152.463 212.406 202.726 152.104 184.122C124.059 175.469 126.434 161.106 105.108 142.178C92.3972 130.896 74.133 122.365 69.0534 105.967C64.6651 91.8126 67.3562 76.5986 74.964 66.703C92.0739 44.4481 126.616 29.209 160.65 64.2733C194.684 99.3373 256.461 63.9936 259.971 127.745Z" fill="url(#paint0_linear_61_175)"/>
<path d="M246.56 73.2578C241.801 81.6469 231.38 82.7996 214.683 81.2052C202.126 80.0042 190.675 79.0747 178.117 72.3114C169.327 67.581 162.369 61.1806 157.291 54.9644C151.788 48.2303 144.107 40.545 147.872 32.9094C153.047 22.4208 182.971 13.5871 212.029 28.0332C243.948 43.9067 251.215 65.0585 246.56 73.2578Z" fill="url(#paint1_linear_61_175)"/>
<path d="M125.439 175.858C114.353 160.538 102.999 144.255 88.1346 136.235C72.8028 127.959 69.9751 133.06 68.9138 141.169C67.8526 149.279 72.5831 168.493 93.5069 179.425C114.436 190.36 135.812 190.197 125.439 175.858Z" fill="url(#paint2_linear_61_175)"/>
<path d="M253.586 174.812H73.6404C68.3203 174.812 64.0056 170.55 64.0056 165.295V53.9222C64.0056 48.6669 68.3203 44.4049 73.6404 44.4049H253.586C258.906 44.4049 263.22 48.6669 263.22 53.9222V165.295C263.22 170.55 258.906 174.812 253.586 174.812Z" fill="white" stroke="#E1E4E5" stroke-width="4"/>
<path d="M263.22 53.9222C263.22 54.7184 262.9 55.482 262.33 56.045C261.76 56.608 260.987 56.9243 260.181 56.9243H67.0451C66.239 56.9243 65.466 56.608 64.896 56.045C64.326 55.482 64.0057 54.7184 64.0056 53.9222C64.0056 48.6669 68.3203 44.4049 73.6404 44.4049H253.586C258.906 44.4049 263.22 48.6669 263.22 53.9222Z" fill="white" stroke="#E1E4E5" stroke-width="4"/>
<path d="M73.6597 53.312C73.9544 53.3157 74.2468 53.2616 74.5201 53.1528C74.7934 53.044 75.0422 52.8827 75.2519 52.6782C75.4616 52.4737 75.6281 52.2301 75.7417 51.9615C75.8553 51.6929 75.9138 51.4048 75.9138 51.1137C75.9138 50.8226 75.8553 50.5344 75.7417 50.2658C75.6281 49.9973 75.4616 49.7537 75.2519 49.5492C75.0422 49.3447 74.7934 49.1833 74.5201 49.0745C74.2468 48.9657 73.9544 48.9116 73.6597 48.9153C73.0744 48.9227 72.5156 49.1576 72.1044 49.5691C71.6931 49.9805 71.4625 50.5355 71.4625 51.1137C71.4625 51.6919 71.6931 52.2468 72.1044 52.6583C72.5156 53.0698 73.0744 53.3046 73.6597 53.312ZM82.933 53.312C83.2276 53.3157 83.5201 53.2616 83.7934 53.1528C84.0667 53.044 84.3155 52.8827 84.5252 52.6782C84.7348 52.4737 84.9013 52.2301 85.015 51.9615C85.1286 51.6929 85.1871 51.4048 85.1871 51.1137C85.1871 50.8226 85.1286 50.5344 85.015 50.2658C84.9013 49.9973 84.7348 49.7537 84.5252 49.5492C84.3155 49.3447 84.0667 49.1833 83.7934 49.0745C83.5201 48.9657 83.2276 48.9116 82.933 48.9153C82.3477 48.9227 81.7889 49.1576 81.3777 49.5691C80.9664 49.9805 80.7358 50.5355 80.7358 51.1137C80.7358 51.6919 80.9664 52.2468 81.3777 52.6583C81.7889 53.0698 82.3477 53.3046 82.933 53.312ZM91.8356 53.312C92.1303 53.3157 92.4228 53.2616 92.6961 53.1528C92.9694 53.044 93.2181 52.8827 93.4278 52.6782C93.6375 52.4737 93.804 52.2301 93.9176 51.9615C94.0313 51.6929 94.0898 51.4048 94.0898 51.1137C94.0898 50.8226 94.0313 50.5344 93.9176 50.2658C93.804 49.9973 93.6375 49.7537 93.4278 49.5492C93.2181 49.3447 92.9694 49.1833 92.6961 49.0745C92.4228 48.9657 92.1303 48.9116 91.8356 48.9153C91.2503 48.9227 90.6916 49.1576 90.2803 49.5691C89.8691 49.9805 89.6385 50.5355 89.6385 51.1137C89.6385 51.6919 89.8691 52.2468 90.2803 52.6583C90.6916 53.0698 91.2503 53.3046 91.8356 53.312Z" fill="#E1E4E5"/>
<path d="M129.644 74.5247H53.9425C51.7258 74.5247 49.9288 76.2997 49.9288 78.4893V102.278C49.9288 104.468 51.7258 106.243 53.9425 106.243H129.644C131.861 106.243 133.658 104.468 133.658 102.278V78.4893C133.658 76.2997 131.861 74.5247 129.644 74.5247Z" fill="#141517"/>
<path d="M123.16 84.2652H75.8861C74.8449 84.2652 74.0009 85.0989 74.0009 86.1273C74.0009 87.1557 74.8449 87.9894 75.8861 87.9894H123.16C124.201 87.9894 125.045 87.1557 125.045 86.1273C125.045 85.0989 124.201 84.2652 123.16 84.2652Z" fill="white"/>
<path d="M105.178 92.5733H75.8861C74.8449 92.5733 74.0009 93.407 74.0009 94.4354C74.0009 95.4638 74.8449 96.2975 75.8861 96.2975H105.178C106.22 96.2975 107.064 95.4638 107.064 94.4354C107.064 93.407 106.22 92.5733 105.178 92.5733Z" fill="white"/>
<path d="M63.5598 96.2978C66.9236 96.2978 69.6504 93.6042 69.6504 90.2815C69.6504 86.9588 66.9236 84.2652 63.5598 84.2652C60.1961 84.2652 57.4692 86.9588 57.4692 90.2815C57.4692 93.6042 60.1961 96.2978 63.5598 96.2978Z" fill="white"/>
<path d="M248.386 110.52H181.134C178.917 110.52 177.12 112.295 177.12 114.485V175.985C177.12 178.174 178.917 179.949 181.134 179.949H248.386C250.602 179.949 252.399 178.174 252.399 175.985V114.485C252.399 112.295 250.602 110.52 248.386 110.52Z" fill="#141517"/>
<path d="M242.96 157.976H200.458C199.521 157.976 198.763 158.725 198.763 159.65C198.763 160.574 199.521 161.324 200.458 161.324H242.96C243.896 161.324 244.655 160.574 244.655 159.65C244.655 158.725 243.896 157.976 242.96 157.976Z" fill="white"/>
<path d="M198.628 123.609V149.408C198.628 150.351 199.402 151.115 200.357 151.115H200.357C201.311 151.115 202.085 150.351 202.085 149.408V123.609C202.085 122.666 201.311 121.902 200.357 121.902H200.357C199.402 121.902 198.628 122.666 198.628 123.609Z" fill="white"/>
<path d="M213.607 123.609V149.408C213.607 150.351 214.381 151.115 215.336 151.115H215.336C216.29 151.115 217.064 150.351 217.064 149.408V123.609C217.064 122.666 216.29 121.902 215.336 121.902H215.336C214.381 121.902 213.607 122.666 213.607 123.609Z" fill="white"/>
<path d="M228.586 123.609V149.408C228.586 150.351 229.36 151.115 230.315 151.115H230.315C231.269 151.115 232.043 150.351 232.043 149.408V123.609C232.043 122.666 231.269 121.902 230.315 121.902H230.315C229.36 121.902 228.586 122.666 228.586 123.609Z" fill="white"/>
<path d="M226.793 165.446H200.458C199.521 165.446 198.763 166.195 198.763 167.12C198.763 168.044 199.521 168.794 200.458 168.794H226.793C227.73 168.794 228.488 168.044 228.488 167.12C228.488 166.195 227.73 165.446 226.793 165.446Z" fill="white"/>
<path d="M206.31 133.663V149.598C206.31 150.436 206.998 151.115 207.846 151.115H207.846C208.695 151.115 209.382 150.436 209.382 149.598V133.663C209.382 132.825 208.695 132.145 207.846 132.145H207.846C206.998 132.145 206.31 132.825 206.31 133.663Z" fill="white"/>
<path d="M221.289 133.663V149.598C221.289 150.436 221.977 151.115 222.825 151.115H222.825C223.674 151.115 224.361 150.436 224.361 149.598V133.663C224.361 132.825 223.674 132.145 222.825 132.145H222.825C221.977 132.145 221.289 132.825 221.289 133.663Z" fill="white"/>
<path d="M236.268 133.663V149.598C236.268 150.436 236.956 151.115 237.804 151.115H237.804C238.653 151.115 239.341 150.436 239.341 149.598V133.663C239.341 132.825 238.653 132.145 237.804 132.145H237.804C236.956 132.145 236.268 132.825 236.268 133.663Z" fill="white"/>
<path d="M189.376 168.794C192.4 168.794 194.851 166.372 194.851 163.385C194.851 160.397 192.4 157.976 189.376 157.976C186.351 157.976 183.9 160.397 183.9 163.385C183.9 166.372 186.351 168.794 189.376 168.794Z" fill="white"/>
<path d="M270.782 52.9431H199.327C195.704 52.9431 192.767 55.8442 192.767 59.4231V77.6142C192.767 81.193 195.704 84.0942 199.327 84.0942H270.782C274.405 84.0942 277.342 81.193 277.342 77.6142V59.4231C277.342 55.8442 274.405 52.9431 270.782 52.9431Z" fill="white" stroke="#E1E4E5" stroke-width="4"/>
<path d="M267.284 62.2318H218.709C217.64 62.2318 216.772 63.0884 216.772 64.1452C216.772 65.2019 217.64 66.0586 218.709 66.0586H267.284C268.354 66.0586 269.221 65.2019 269.221 64.1452C269.221 63.0884 268.354 62.2318 267.284 62.2318Z" fill="#E1E4E5"/>
<path d="M248.808 70.7688H218.709C217.64 70.7688 216.772 71.6255 216.772 72.6822C216.772 73.7389 217.64 74.5956 218.709 74.5956H248.808C249.878 74.5956 250.745 73.7389 250.745 72.6822C250.745 71.6255 249.878 70.7688 248.808 70.7688Z" fill="#E1E4E5"/>
<path fill-rule="evenodd" clip-rule="evenodd" d="M205.672 76.7344C201.112 76.7344 197.415 73.0303 197.415 68.4623C197.415 63.8942 201.112 60.1906 205.672 60.1906C210.233 60.1906 213.93 63.8942 213.93 68.4623C213.93 73.0303 210.233 76.7344 205.672 76.7344Z" fill="#141517"/>
<path d="M208.58 67.0839L205.092 70.7602L202.997 68.5548" stroke="white" stroke-width="3.568" stroke-linecap="round" stroke-linejoin="round"/>
<path d="M192.894 103.575C192.273 103.349 191.746 103.044 191.382 102.801C191.313 102.755 191.254 102.694 191.21 102.624C191.166 102.553 191.137 102.474 191.126 102.392C191.115 102.31 191.122 102.226 191.147 102.147C191.171 102.068 191.212 101.994 191.267 101.932C191.362 101.824 191.494 101.754 191.638 101.735C191.782 101.716 191.927 101.75 192.048 101.83C192.349 102.03 192.79 102.288 193.305 102.475L193.363 102.496C194.588 102.925 195.642 102.748 196.493 101.97C196.967 101.538 197.382 101.145 197.749 100.798C199.369 99.2624 200.262 98.4168 201.967 98.1961C203.707 97.9711 204.849 99.2498 205.858 100.378C206.581 101.188 207.265 101.953 207.965 101.92L208.118 101.912L208.21 101.958C208.329 101.988 209.507 102.215 211.199 100.104C212.259 98.7815 213.262 98.0697 214.265 97.9293C214.934 97.8354 215.504 98.0021 215.994 98.2487C216.068 98.2858 216.134 98.3381 216.187 98.4021C216.239 98.4661 216.278 98.5405 216.299 98.6202C216.321 98.6999 216.325 98.7832 216.311 98.8647C216.298 98.9461 216.267 99.0237 216.221 99.0925C216.141 99.2123 216.019 99.2985 215.878 99.3346C215.737 99.3707 215.588 99.3541 215.459 99.288C214.735 98.9132 213.743 98.82 212.13 100.832C210.071 103.402 208.414 103.227 207.91 103.094C206.698 103.091 205.819 102.106 204.968 101.154C204.077 100.157 203.236 99.2149 202.123 99.3593C200.804 99.5299 200.104 100.192 198.571 101.644C198.151 102.044 197.728 102.44 197.3 102.831C196.106 103.921 194.596 104.183 192.931 103.589C192.918 103.584 192.906 103.58 192.894 103.575Z" fill="#E1E4E5"/>
<path d="M216.815 99.977C216.194 99.7506 215.667 99.4453 215.303 99.2027C215.234 99.1563 215.175 99.0959 215.131 99.0254C215.087 98.9549 215.058 98.8759 215.047 98.7938C215.036 98.7116 215.043 98.6281 215.068 98.5488C215.092 98.4695 215.133 98.3961 215.188 98.3336C215.283 98.2254 215.415 98.1552 215.559 98.1364C215.703 98.1175 215.848 98.1513 215.969 98.2314C216.27 98.4319 216.711 98.6897 217.226 98.8769L217.284 98.8977C218.509 99.3265 219.563 99.1498 220.415 98.3722C220.888 97.9402 221.303 97.5467 221.67 97.1996C223.29 95.6642 224.183 94.8186 225.888 94.5979C227.628 94.3729 228.77 95.6516 229.779 96.7802C230.502 97.5899 231.186 98.3545 231.886 98.3214L232.039 98.3142L232.131 98.3603C232.25 98.3901 233.428 98.6169 235.12 96.5063C236.18 95.1833 237.183 94.4715 238.186 94.3308C238.855 94.2372 239.425 94.4039 239.915 94.6505C239.989 94.6876 240.055 94.7399 240.108 94.8039C240.161 94.8679 240.199 94.9423 240.22 95.022C240.242 95.1017 240.246 95.185 240.232 95.2664C240.219 95.3479 240.188 95.4255 240.142 95.4943C240.062 95.6141 239.94 95.7003 239.799 95.7364C239.658 95.7725 239.509 95.7559 239.38 95.6898C238.656 95.315 237.664 95.2218 236.051 97.2338C233.992 99.8039 232.335 99.6293 231.831 99.4954C230.619 99.4921 229.74 98.5082 228.889 97.5557C227.998 96.5585 227.157 95.6167 226.044 95.7607C224.725 95.9314 224.025 96.5941 222.492 98.046C222.072 98.4457 221.649 98.8415 221.221 99.2333C220.027 100.323 218.517 100.585 216.852 99.9904C216.839 99.9853 216.827 99.9813 216.815 99.977Z" fill="#E1E4E5"/>
<path d="M83.0929 119.643L78.9969 123.685L77.0071 121.725M91.9675 117.709H104.073M92.0619 123.641H112.081M83.0929 133.486L78.9969 137.528L77.0071 135.568M91.9675 131.552H104.073M92.0619 137.484H112.081M112.081 151.326H91.9675M112.081 145.394H92.0619" stroke="#E1E4E5" stroke-width="5.5" stroke-linecap="round" stroke-linejoin="round"/>
<path d="M80.0498 153.304C82.2613 153.304 84.054 151.533 84.054 149.349C84.054 147.165 82.2613 145.394 80.0498 145.394C77.8387 145.394 76.046 147.165 76.046 149.349C76.046 151.533 77.8387 153.304 80.0498 153.304Z" stroke="#E1E4E5" stroke-width="5.5" stroke-linecap="round" stroke-linejoin="round"/>
<path d="M134.944 119.643L130.848 123.685L128.858 121.725M143.818 117.709H155.923M143.912 123.641H163.931M134.944 133.486L130.848 137.528L128.858 135.568M143.818 131.552H155.923M143.912 137.484H163.931M163.931 151.326H143.818M163.931 145.394H143.912" stroke="#E1E4E5" stroke-width="5.5" stroke-linecap="round" stroke-linejoin="round"/>
<path d="M131.901 153.304C134.112 153.304 135.904 151.533 135.904 149.349C135.904 147.165 134.112 145.394 131.901 145.394C129.689 145.394 127.897 147.165 127.897 149.349C127.897 151.533 129.689 153.304 131.901 153.304Z" stroke="#E1E4E5" stroke-width="5.5" stroke-linecap="round" stroke-linejoin="round"/>
<path d="M240.305 96.2195C241.525 96.441 242.695 95.6442 242.919 94.4396C243.144 93.2351 242.337 92.079 241.118 91.8575C239.898 91.6359 238.728 92.4328 238.504 93.6373C238.279 94.8418 239.086 95.9979 240.305 96.2195Z" fill="#E1E4E5"/>
<path fill-rule="evenodd" clip-rule="evenodd" d="M186.865 87.3738H186.074C185.983 87.3737 185.895 87.3377 185.83 87.2738C185.765 87.2099 185.729 87.1232 185.729 87.0329V86.2513C185.729 86.0623 185.885 85.9104 186.074 85.9104H186.865C186.957 85.9107 187.044 85.9467 187.109 86.0105C187.174 86.0744 187.21 86.161 187.21 86.2513V87.0329C187.211 87.0777 187.202 87.1221 187.184 87.1635C187.167 87.2049 187.142 87.2426 187.11 87.2742C187.078 87.3059 187.039 87.331 186.997 87.3481C186.956 87.3652 186.911 87.3739 186.865 87.3738ZM184.122 87.3738H183.331C183.24 87.3735 183.152 87.3375 183.087 87.2736C183.023 87.2097 182.986 87.1232 182.986 87.0329V86.2513C182.986 86.0623 183.142 85.9104 183.331 85.9104H184.122C184.214 85.9107 184.301 85.9467 184.366 86.0105C184.431 86.0744 184.467 86.161 184.468 86.2513V87.0329C184.467 87.1232 184.431 87.2097 184.366 87.2736C184.301 87.3375 184.214 87.3735 184.122 87.3738ZM181.378 87.3738H180.587C180.495 87.3735 180.408 87.3375 180.343 87.2736C180.278 87.2098 180.242 87.1232 180.241 87.0329V86.2513C180.241 86.0623 180.397 85.9104 180.587 85.9104H181.378C181.568 85.9104 181.723 86.0641 181.723 86.2513V87.0329C181.723 87.0777 181.714 87.1221 181.697 87.1635C181.68 87.2049 181.654 87.2425 181.622 87.2742C181.59 87.3058 181.552 87.3309 181.51 87.348C181.468 87.3651 181.423 87.3739 181.378 87.3738ZM178.635 87.3738H177.844C177.753 87.3735 177.665 87.3375 177.6 87.2736C177.536 87.2098 177.499 87.1232 177.499 87.0329V86.2513C177.499 86.0623 177.654 85.9104 177.844 85.9104H178.635C178.826 85.9104 178.982 86.0641 178.982 86.2513V87.0329C178.981 87.1233 178.944 87.2097 178.879 87.2735C178.814 87.3373 178.727 87.3733 178.635 87.3738ZM175.892 87.3738H175.101C175.009 87.3738 174.921 87.3379 174.856 87.274C174.791 87.2101 174.755 87.1234 174.754 87.0329V86.2513C174.754 86.0623 174.91 85.9104 175.101 85.9104H175.892C175.984 85.9107 176.071 85.9467 176.136 86.0105C176.201 86.0744 176.237 86.161 176.237 86.2513V87.0329C176.237 87.1232 176.201 87.2097 176.136 87.2736C176.071 87.3375 175.984 87.3735 175.892 87.3738ZM184.022 84.4193H183.231C183.14 84.419 183.052 84.383 182.987 84.3191C182.922 84.2552 182.886 84.1687 182.886 84.0783V83.2953C182.886 83.1078 183.041 82.9541 183.231 82.9541H184.022C184.213 82.9541 184.367 83.1078 184.367 83.2953V84.0765C184.368 84.1215 184.359 84.166 184.342 84.2076C184.324 84.2492 184.299 84.287 184.267 84.3189C184.235 84.3507 184.196 84.376 184.154 84.3932C184.112 84.4105 184.067 84.4193 184.022 84.4193ZM181.279 84.4193H180.488C180.396 84.419 180.309 84.383 180.244 84.3191C180.179 84.2552 180.143 84.1687 180.143 84.0783V83.2953C180.143 83.1078 180.298 82.9541 180.488 82.9541H181.279C181.469 82.9541 181.625 83.1078 181.625 83.2953V84.0765C181.625 84.1215 181.616 84.166 181.599 84.2076C181.581 84.2492 181.556 84.287 181.524 84.3189C181.492 84.3507 181.454 84.376 181.412 84.3932C181.37 84.4105 181.325 84.4193 181.279 84.4193ZM178.536 84.4193H177.745C177.653 84.4193 177.565 84.3834 177.5 84.3195C177.435 84.2556 177.399 84.1689 177.398 84.0783V83.2953C177.398 83.1078 177.554 82.9541 177.745 82.9541H178.536C178.726 82.9541 178.881 83.1078 178.881 83.2953V84.0765C178.881 84.1671 178.845 84.254 178.78 84.3182C178.716 84.3825 178.628 84.4188 178.536 84.4193ZM181.378 90.5479H180.587C180.495 90.5476 180.408 90.5116 180.343 90.4476C180.278 90.3837 180.242 90.297 180.241 90.2066V89.4254C180.241 89.2364 180.397 89.0841 180.587 89.0841H181.378C181.568 89.0841 181.723 89.2379 181.723 89.4254V90.2066C181.723 90.2515 181.715 90.2959 181.697 90.3373C181.68 90.3788 181.654 90.4164 181.622 90.4481C181.59 90.4799 181.552 90.505 181.51 90.5221C181.468 90.5392 181.423 90.548 181.378 90.5479ZM178.635 90.5479H177.844C177.753 90.5476 177.665 90.5116 177.6 90.4476C177.535 90.3837 177.499 90.297 177.499 90.2066V89.4254C177.499 89.2364 177.654 89.0841 177.844 89.0841H178.635C178.826 89.0841 178.982 89.2379 178.982 89.4254V90.2066C178.981 90.2971 178.944 90.3836 178.879 90.4475C178.814 90.5114 178.727 90.5474 178.635 90.5479ZM173.039 75.2331H172.247C172.156 75.233 172.068 75.1971 172.003 75.1332C171.939 75.0693 171.902 74.9826 171.902 74.8922V74.1107C171.902 73.9217 172.058 73.7697 172.247 73.7697H173.039C173.13 73.77 173.218 73.806 173.282 73.8699C173.347 73.9338 173.383 74.0203 173.384 74.1107V74.8922C173.384 74.937 173.375 74.9814 173.358 75.0228C173.34 75.0643 173.315 75.1019 173.283 75.1336C173.251 75.1653 173.213 75.1904 173.171 75.2075C173.129 75.2246 173.084 75.2333 173.039 75.2331ZM170.296 75.2331H169.505C169.413 75.2328 169.326 75.1967 169.261 75.1329C169.196 75.069 169.16 74.9825 169.159 74.8922V74.1107C169.159 73.9217 169.315 73.7697 169.505 73.7697H170.296C170.387 73.77 170.475 73.806 170.54 73.8699C170.604 73.9338 170.641 74.0203 170.641 74.1107V74.8922C170.641 74.9825 170.604 75.0691 170.54 75.133C170.475 75.1968 170.387 75.2329 170.296 75.2331ZM167.551 75.2331H166.76C166.668 75.2329 166.581 75.1968 166.516 75.133C166.452 75.0691 166.415 74.9825 166.415 74.8922V74.1107C166.415 73.9217 166.57 73.7697 166.76 73.7697H167.551C167.741 73.7697 167.897 73.9235 167.897 74.1107V74.8922C167.897 74.937 167.888 74.9814 167.87 75.0228C167.853 75.0642 167.828 75.1018 167.796 75.1335C167.763 75.1652 167.725 75.1903 167.683 75.2074C167.641 75.2245 167.597 75.2332 167.551 75.2331ZM164.808 75.2331H164.017C163.926 75.2329 163.838 75.1968 163.773 75.133C163.709 75.0691 163.672 74.9825 163.672 74.8922V74.1107C163.672 73.9217 163.828 73.7697 164.017 73.7697H164.808C165 73.7697 165.155 73.9235 165.155 74.1107V74.8922C165.154 74.9826 165.117 75.069 165.052 75.1328C164.988 75.1965 164.9 75.2326 164.808 75.2331ZM162.066 75.2331H161.274C161.183 75.2331 161.095 75.1973 161.03 75.1334C160.965 75.0695 160.928 74.9828 160.927 74.8922V74.1107C160.927 73.9217 161.083 73.7697 161.274 73.7697H162.066C162.157 73.77 162.245 73.806 162.309 73.8699C162.374 73.9338 162.41 74.0203 162.411 74.1107V74.8922C162.41 74.9825 162.374 75.0691 162.309 75.133C162.245 75.1968 162.157 75.2329 162.066 75.2331ZM170.195 72.2786H169.404C169.313 72.2783 169.225 72.2423 169.16 72.1785C169.096 72.1146 169.059 72.028 169.059 71.9377V71.1547C169.059 70.9671 169.214 70.8134 169.404 70.8134H170.195C170.387 70.8134 170.54 70.9671 170.54 71.1547V71.9359C170.541 71.9808 170.532 72.0254 170.515 72.067C170.497 72.1086 170.472 72.1464 170.44 72.1782C170.408 72.2101 170.37 72.2354 170.328 72.2526C170.286 72.2698 170.241 72.2787 170.195 72.2786ZM167.452 72.2786H166.661C166.57 72.2783 166.482 72.2423 166.417 72.1785C166.353 72.1146 166.316 72.028 166.316 71.9377V71.1547C166.316 70.9671 166.472 70.8134 166.661 70.8134H167.452C167.642 70.8134 167.798 70.9671 167.798 71.1547V71.9359C167.798 71.9808 167.789 72.0254 167.772 72.067C167.755 72.1086 167.729 72.1464 167.697 72.1782C167.665 72.2101 167.627 72.2354 167.585 72.2526C167.543 72.2698 167.498 72.2787 167.452 72.2786ZM164.71 72.2786H163.918C163.827 72.2786 163.739 72.2428 163.674 72.1789C163.609 72.115 163.572 72.0283 163.571 71.9377V71.1547C163.571 70.9671 163.727 70.8134 163.918 70.8134H164.71C164.899 70.8134 165.055 70.9671 165.055 71.1547V71.9359C165.055 72.0265 165.018 72.1134 164.954 72.1776C164.889 72.2418 164.801 72.2781 164.71 72.2786ZM167.551 78.4073H166.76C166.668 78.4068 166.581 78.3707 166.516 78.3068C166.452 78.2428 166.415 78.1563 166.415 78.066V77.2844C166.415 77.0958 166.57 76.9435 166.76 76.9435H167.551C167.741 76.9435 167.897 77.0972 167.897 77.2844V78.066C167.897 78.1108 167.888 78.1552 167.87 78.1966C167.853 78.2381 167.828 78.2757 167.796 78.3074C167.763 78.3391 167.725 78.3642 167.683 78.3814C167.641 78.3985 167.597 78.4073 167.551 78.4073ZM164.808 78.4073H164.017C163.926 78.4068 163.838 78.3707 163.773 78.3068C163.709 78.2428 163.672 78.1563 163.672 78.066V77.2844C163.672 77.0958 163.828 76.9435 164.017 76.9435H164.808C165 76.9435 165.155 77.0972 165.155 77.2844V78.066C165.154 78.1564 165.117 78.2428 165.052 78.3066C164.987 78.3704 164.9 78.4065 164.808 78.4073Z" fill="#E1E4E5"/>
<path d="M141.773 94.7641C143.073 99.5565 148.059 102.4 152.911 101.116C157.762 99.8322 160.642 94.9063 159.342 90.1139C158.042 85.3216 153.055 82.4776 148.203 83.7617C143.352 85.0458 140.473 89.9717 141.773 94.7641Z" fill="url(#paint3_linear_61_175)"/>
<path d="M144.283 94.0998C145.211 97.5228 148.773 99.5542 152.238 98.637C155.704 97.7198 157.76 94.2013 156.832 90.7783C155.903 87.3552 152.341 85.3238 148.876 86.241C145.411 87.1582 143.354 90.6767 144.283 94.0998Z" fill="white"/>
<path d="M152.911 101.116C151.466 101.499 149.949 101.523 148.492 101.188C147.036 100.852 145.685 100.167 144.561 99.1932C143.437 98.2191 142.573 96.9862 142.046 95.6035C141.519 94.2209 141.346 92.7313 141.541 91.2666C141.736 89.8019 142.294 88.4074 143.165 87.2065C144.036 86.0057 145.194 85.0356 146.535 84.3821C147.876 83.7287 149.36 83.4121 150.855 83.4604C152.349 83.5087 153.809 83.9204 155.104 84.659L153.74 86.9933C152.834 86.4759 151.812 86.1875 150.766 86.1536C149.719 86.1198 148.681 86.3415 147.742 86.7992C146.803 87.2564 145.992 87.9354 145.382 88.776C144.772 89.6165 144.382 90.5928 144.245 91.6181C144.108 92.6435 144.23 93.6863 144.599 94.6542C144.968 95.6221 145.572 96.4851 146.36 97.1669C147.147 97.8485 148.092 98.328 149.112 98.5628C150.131 98.7977 151.194 98.7807 152.205 98.5133L152.911 101.116Z" fill="#141517"/>
</g>
<defs>
<linearGradient id="paint0_linear_61_175" x1="201.497" y1="275.912" x2="112.1" y2="-132.396" gradientUnits="userSpaceOnUse">
<stop stop-color="white"/>
<stop offset="1" stop-color="#EEEEEE"/>
</linearGradient>
<linearGradient id="paint1_linear_61_175" x1="214.503" y1="127.628" x2="173.069" y2="-60.8587" gradientUnits="userSpaceOnUse">
<stop stop-color="white"/>
<stop offset="1" stop-color="#EEEEEE"/>
</linearGradient>
<linearGradient id="paint2_linear_61_175" x1="113.06" y1="226.151" x2="77.5307" y2="59.8171" gradientUnits="userSpaceOnUse">
<stop stop-color="white"/>
<stop offset="1" stop-color="#EEEEEE"/>
</linearGradient>
<linearGradient id="paint3_linear_61_175" x1="132.023" y1="97.7416" x2="178.325" y2="84.5951" gradientUnits="userSpaceOnUse">
<stop stop-color="white"/>
<stop offset="1" stop-color="#EEEEEE"/>
</linearGradient>
<clipPath id="clip0_61_175">
<rect width="328" height="216" fill="white"/>
</clipPath>
</defs>
</svg>
