<svg width="328" height="216" viewBox="0 0 328 216" fill="none" xmlns="http://www.w3.org/2000/svg">
<g clip-path="url(#clip0_61_214)">
<path d="M118.394 35.5378C154.844 33.44 193.061 44.3668 187.444 60.206C181.826 76.0453 217.477 54.5803 231.703 60.291C241.832 64.3565 237.784 76.7333 242.683 81.7207C253.918 93.155 265.409 78.7561 279.709 87.3958C294.008 96.0354 264.732 176.67 249.794 177.12L79.4113 176.093L67.1842 175.004C67.1842 175.004 33.3627 156.661 57.5567 139.741C73.9159 128.3 62.145 119.992 60.3658 114.754C58.3227 108.741 53.5569 98.2375 74.3248 90.5299C95.093 82.8223 89.7309 66.051 89.22 62.5788C88.7098 59.1048 81.9442 37.6358 118.394 35.5378Z" fill="url(#paint0_linear_61_214)"/>
<path d="M202.164 72.374C203.709 74.7673 207.744 77.5562 210.606 77.5181C220.355 77.3417 223.565 70.7814 224.617 68.3928C224.419 68.3453 224.086 68.3071 223.85 68.2783C222.055 68.0209 220.22 66.2666 219.685 64.2881C218.994 61.7134 218.145 56.6788 218.246 53.4798L205.915 60.2212C205.934 61.146 205.997 62.1569 206.083 63.1771C206.146 63.797 206.209 64.4072 206.281 64.9984C206.349 65.5657 206.426 66.1043 206.499 66.6004C206.726 68.269 205.973 69.9232 204.549 70.8433L202.164 72.374Z" fill="#F8AE9D"/>
<path d="M201.103 46.1516C201.769 47.8775 201.489 49.8373 200.813 51.5581C200.335 52.7742 199.273 51.7014 197.951 51.7252C195.905 51.7586 194.307 49.6559 193.072 44.0827C192.285 39.992 192.087 37.9181 192.246 37.5224C192.811 36.1062 194.674 35.348 196.209 35.2148" fill="#1D1E21"/>
<path d="M197.99 33.894C194.765 37.732 193.593 48.5309 196.315 56.0542C198.25 61.4034 200.499 64.8555 203.125 64.7457C207.112 64.5786 214.839 61.3415 217.354 58.6383C221.885 53.7703 220.568 44.2257 219.632 38.2183C218.782 32.7593 216.195 25.6698 209.25 27.0191C204.684 27.9011 200.881 30.447 197.99 33.894Z" fill="#F8AE9D"/>
<path d="M216.231 38.1334C215.516 39.0409 214.255 39.2411 213.216 39.4204C211.82 39.6616 211.129 40.1641 210.405 41.5127C209.946 42.3738 209.487 43.3174 208.666 43.7839C207.998 44.1648 208.023 43.1921 207.916 42.4383C207.907 42.3724 207.893 42.3072 207.875 42.2431C207.713 41.6416 207.065 41.7449 206.873 42.3382C206.699 42.8713 206.328 43.3224 205.854 43.5737C205.777 43.6147 205.695 43.6507 205.613 43.6353C205.501 43.6201 205.414 43.5175 205.342 43.425C205.19 43.2313 205.039 42.9855 204.883 42.7248C204.37 41.8698 203.402 42.1773 202.83 42.9945C202.473 43.5021 202.047 44.0251 201.463 44.1429C201.275 44.1839 201.038 44.1533 200.951 43.9737C200.84 43.7533 201.014 43.5327 200.985 43.3073C200.961 43.0971 200.869 43.0045 200.767 42.8253C200.369 42.1276 199.459 42.1027 198.899 42.6816C198.509 43.0841 198.102 43.4707 197.681 43.8405C197.502 43.9942 197.241 44.1483 197.062 43.9942C196.965 43.9121 196.941 43.7739 196.922 43.6403C196.82 42.9894 196.724 42.3382 196.623 41.6869C196.565 41.323 196.366 40.846 196.028 40.9381C195.864 40.9846 195.768 41.1538 195.676 41.3075C195.565 41.5023 193.579 43.7224 193.54 43.5532C193.231 42.2921 192.598 41.1433 192.289 39.8819C190.29 31.765 199.163 25.2378 205.941 25.2018C207.448 25.1914 208.825 25.2155 210.289 25.5593C211.849 25.9283 213.496 26.5144 214.912 27.3399C216.897 28.4937 218.4 30.5907 218.013 33.093" fill="#1D1E21"/>
<path d="M213.039 35.3484C212.054 36.4496 211.794 37.9991 211.702 39.4628C211.567 41.6703 211.75 43.9635 212.783 45.923C213.078 46.4807 213.295 49.2411 213.748 49.0885C213.893 49.041 213.869 46.9004 214.25 45.7466C214.839 43.9585 217.552 43.277 218.773 44.4067C220.723 46.2042 219.579 48.3879 218.932 49.7466C218.546 50.5667 217.933 51.4868 217.827 52.3544C217.697 53.4654 217.658 57.5132 218.392 58.4571C219.005 59.2484 219.656 55.4249 220.211 54.6717C224.319 49.0601 228.257 34.7713 221.244 31.6724C220.177 31.2005 216.886 30.9571 215.886 31.5579M187.072 148.933C186.666 149 186.256 149.057 185.831 149.071C183.573 149.143 181.391 148.652 179.185 148.28C177.245 147.951 176.719 147.77 176.757 145.457C177.096 127.145 179.822 108.88 184.726 91.2157C185.474 88.5171 186.29 85.7995 187.724 83.3871C190.17 79.2727 195.789 75.7209 200.099 73.728C200.707 73.4465 203.226 75.0294 203.839 74.7576C204.375 74.5193 204.848 74.1474 205.389 73.9137C206.972 73.2319 208.033 74.6575 209.356 75.2537C210.041 75.5586 210.804 75.7541 211.557 75.7209C212.17 75.6968 212.725 75.33 213.285 75.6158C215.804 76.9032 222.059 67.3488 222.059 67.3488L224.777 70.1377L232.707 78.3428L252.524 105.314C252.524 105.314 256.12 127.417 258.591 141.906C259.021 144.404 260.72 149.805 261.057 151.698C260.985 151.288 244.141 151.178 243.233 151.178H208.902C206.976 151.178 201.798 151.984 200.446 150.587C198.781 148.871 196.855 140.995 196.754 138.787C196.421 131.364 196.937 123.998 197.039 116.532C196.995 119.569 196.112 122.315 195.735 125.29C195.248 129.119 194.553 132.942 193.926 136.751C193.423 139.812 192.941 142.883 192.555 145.963C192.381 147.35 192.603 148.175 191.416 148.718C190.417 149.171 188.24 148.737 187.072 148.933Z" fill="#141517"/>
<path d="M195.436 142.592C196.353 142.22 202.014 140.833 204.567 140.308C205.904 140.036 211.966 138.482 213.371 138.482C214.775 138.482 216.687 140.466 216.687 140.466L216.18 147.288C214.829 147.155 213.019 147.846 212.048 147.979C211.078 148.113 207.782 148.132 205.755 147.126C205.639 147.069 205.533 147.007 205.426 146.945C204.611 147.66 203.588 148.356 202.453 148.413C202.453 148.413 201.565 148.323 201.652 147.97C201.691 147.798 202.28 146.911 202.868 146.044C202 146.916 200.581 148.332 198.944 148.413C198.944 148.413 198.057 148.323 198.143 147.97C198.191 147.76 199.041 146.506 199.726 145.509C199.717 145.519 199.702 145.524 199.697 145.534C198.978 146.158 197.27 148.313 195.247 148.413C195.247 148.413 194.359 148.323 194.446 147.97C194.475 147.841 194.813 147.312 195.223 146.697C194.625 147.151 193.983 147.547 193.307 147.879C191.121 148.947 189.876 148.137 189.876 147.879C189.871 147.617 194.519 142.964 195.436 142.592Z" fill="#F8AE9D"/>
<path d="M215.122 134.668C215.122 134.668 211.599 136.642 211.913 140.837C212.227 145.033 213.501 149.896 218.82 149.386C224.138 148.881 215.122 134.668 215.122 134.668Z" fill="#141517"/>
<path d="M217.961 148.971C230.713 153.343 247.775 149.166 258.591 141.906C265.368 137.367 269.692 131.602 268.963 125.972C267.076 111.345 255.439 77.8187 245.371 72.927C238.527 69.5992 230.226 68.2214 225.597 67.6681C223.425 67.406 222.069 67.3441 222.069 67.3441L223.748 72.0259L232.156 95.4446C232.47 109.342 242.538 117.595 240.535 120.832C238.532 124.06 222.716 127.545 214.409 133.071C212.112 134.606 209.197 145.71 217.961 148.971Z" fill="#141517"/>
<path d="M232.156 95.4446C232.147 98.0813 232.518 100.722 233.213 103.278C233.913 105.834 234.937 108.298 236.124 110.673C236.717 111.86 237.35 113.023 238.001 114.172C238.643 115.326 239.304 116.47 239.845 117.643C240.111 118.229 240.342 118.835 240.434 119.431C240.458 119.722 240.482 120.022 240.4 120.275C240.381 120.413 240.299 120.518 240.251 120.642C240.159 120.751 240.096 120.87 239.98 120.975C239.116 121.829 237.881 122.406 236.708 122.963C231.891 125.133 226.775 126.739 221.9 128.904C219.463 129.986 217.049 131.154 214.805 132.613L214.39 132.89C214.25 132.985 214.119 133.109 213.985 133.219C213.736 133.457 213.52 133.726 213.342 134.02C212.985 134.596 212.744 135.226 212.556 135.865C212.198 137.147 212.049 138.468 212.039 139.789C212.126 138.478 212.348 137.166 212.739 135.922C213.154 134.687 213.796 133.486 214.998 132.909C217.252 131.526 219.67 130.425 222.122 129.41C224.579 128.408 227.064 127.459 229.56 126.539C232.055 125.605 234.565 124.713 237.016 123.607C238.223 123.016 239.464 122.458 240.492 121.433C240.622 121.309 240.728 121.137 240.839 120.99C240.921 120.808 241.032 120.637 241.061 120.446C241.177 120.065 241.138 119.688 241.105 119.331C240.989 118.625 240.728 117.986 240.448 117.376C239.874 116.155 239.203 115.016 238.551 113.867C237.9 112.718 237.243 111.578 236.621 110.42C234.135 105.805 232.407 100.727 232.156 95.4446Z" fill="white"/>
<path d="M199.109 74.1809C200.326 75.3729 205.741 79.182 210.905 79.182C211.82 79.1808 212.733 79.0962 213.632 78.9293C217.967 78.1477 221.615 75.2919 223.749 72.0213C224.138 71.4194 224.482 70.7898 224.777 70.1377C225.163 69.318 225.438 68.4789 225.597 67.6681C223.425 67.4061 221.35 66.8671 221.012 66.4859C220.645 68.9843 217.522 73.4944 212.793 74.3429C212.235 74.4452 211.67 74.5011 211.103 74.5099H211.094C208.873 74.5481 207.17 73.8472 206.007 73.1416C205.997 73.1416 203.743 71.3869 203.733 71.3776L199.109 74.1809Z" fill="#141517"/>
<path d="M195.711 128.646C195.724 128.412 195.694 128.182 195.702 127.948C195.712 127.696 195.74 127.449 195.76 127.197L195.9 125.753C195.989 124.77 196.079 123.786 196.155 122.802C196.305 120.852 196.406 118.895 196.46 116.94C196.562 113.03 196.504 109.111 196.238 105.21C196.166 104.117 196.073 103.028 195.971 101.938C195.914 101.379 195.856 100.82 195.795 100.262C195.735 99.7139 195.645 99.1695 195.638 98.6151C195.633 98.271 196.156 98.2476 196.235 98.5673C196.466 99.5159 196.5 100.535 196.6 101.505C196.694 102.48 196.779 103.454 196.853 104.432C196.997 106.403 197.093 108.375 197.14 110.35C197.225 114.28 197.084 118.212 196.744 122.133C196.647 123.235 196.537 124.332 196.402 125.427C196.334 125.986 196.258 126.544 196.176 127.101C196.138 127.347 196.104 127.593 196.057 127.834C195.997 128.117 195.89 128.379 195.831 128.662C195.798 128.727 195.703 128.703 195.711 128.646Z" fill="white"/>
<path d="M196.822 52.5546C196.788 52.5546 196.696 52.5024 196.774 52.5024C196.812 52.5024 196.899 52.5546 196.822 52.5546Z" fill="#CC6144"/>
<path d="M251.118 177.84H80.5269C77.9579 177.84 75.6594 177.063 74.019 175.84C72.3794 174.618 71.4311 172.983 71.4311 171.237V91.5635C71.4311 89.8171 72.3794 88.1824 74.019 86.9598C75.6594 85.7373 77.9579 84.96 80.5269 84.96H251.118C253.686 84.96 255.985 85.7373 257.625 86.9598C259.265 88.1824 260.213 89.8171 260.213 91.5635V171.237C260.213 172.983 259.265 174.618 257.625 175.84C255.985 177.063 253.686 177.84 251.118 177.84Z" fill="white" stroke="#E1E4E5" stroke-width="4"/>
<path fill-rule="evenodd" clip-rule="evenodd" d="M87.1022 115.21V148.292C87.1022 150.088 88.5578 151.542 90.3553 151.542H110.07L118.675 139.425C119.086 138.847 120.111 138.847 120.521 139.425L123.534 143.668L123.558 143.701L123.578 143.672L130.04 134.404C130.487 133.763 131.606 133.763 132.053 134.404L140.611 146.68V115.21C140.611 113.414 139.151 111.96 137.358 111.96H90.3553C88.5578 111.96 87.1022 113.414 87.1022 115.21Z" fill="#141517"/>
<path d="M102.192 134.492C99.0531 134.492 96.5085 131.978 96.5085 128.878C96.5085 125.777 99.0531 123.263 102.192 123.263C105.331 123.263 107.876 125.777 107.876 128.878C107.876 131.978 105.331 134.492 102.192 134.492Z" fill="white"/>
<path d="M260.388 96.7659H71.4311V93.9539C71.4311 88.9877 75.5085 84.96 80.536 84.96H251.283C256.31 84.96 260.388 88.9877 260.388 93.9539V96.7659Z" fill="white" stroke="#E1E4E5" stroke-width="4"/>
<path d="M80.5543 93.375C81.1144 93.375 81.6516 93.1552 82.0477 92.7639C82.4437 92.3727 82.6662 91.8421 82.6662 91.2888C82.6662 90.7355 82.4437 90.2048 82.0477 89.8136C81.6516 89.4224 81.1144 89.2026 80.5543 89.2026C79.9942 89.2026 79.457 89.4224 79.0609 89.8136C78.6648 90.2048 78.4423 90.7355 78.4423 91.2888C78.4423 91.8421 78.6648 92.3727 79.0609 92.7639C79.457 93.1552 79.9942 93.375 80.5543 93.375ZM89.3538 93.375C89.6335 93.3786 89.9111 93.3273 90.1706 93.224C90.4301 93.1208 90.6662 92.9676 90.8653 92.7735C91.0643 92.5794 91.2224 92.3482 91.3303 92.0932C91.4382 91.8383 91.4937 91.5647 91.4937 91.2884C91.4936 91.0121 91.4381 90.7385 91.3301 90.4836C91.2222 90.2287 91.0641 89.9975 90.865 89.8034C90.6659 89.6093 90.4298 89.4562 90.1703 89.353C89.9108 89.2498 89.6331 89.1986 89.3534 89.2022C88.7981 89.2095 88.2679 89.4325 87.8778 89.823C87.4877 90.2135 87.269 90.7401 87.269 91.2888C87.2691 91.8374 87.4879 92.364 87.8781 92.7544C88.2682 93.1449 88.7984 93.3678 89.3538 93.375ZM97.8012 93.375C98.3614 93.3749 98.8985 93.155 99.2945 92.7637C99.6905 92.3724 99.9129 91.8417 99.9128 91.2884C99.9127 90.7351 99.6901 90.2045 99.294 89.8134C98.8979 89.4222 98.3606 89.2025 97.8005 89.2026C97.2404 89.2027 96.7032 89.4226 96.3072 89.8139C95.9112 90.2052 95.6888 90.7358 95.6889 91.2891C95.689 91.8424 95.9116 92.373 96.3078 92.7642C96.7039 93.1554 97.2411 93.3751 97.8012 93.375Z" fill="#E1E4E5"/>
<path d="M241.444 111.96H152.52C150.608 111.96 149.058 113.491 149.058 115.38C149.058 117.269 150.608 118.8 152.52 118.8H241.444C243.357 118.8 244.907 117.269 244.907 115.38C244.907 113.491 243.357 111.96 241.444 111.96Z" fill="#E1E4E5"/>
<path d="M241.444 127.8H152.52C150.608 127.8 149.058 129.331 149.058 131.22C149.058 133.109 150.608 134.64 152.52 134.64H241.444C243.357 134.64 244.907 133.109 244.907 131.22C244.907 129.331 243.357 127.8 241.444 127.8Z" fill="#E1E4E5"/>
<path d="M241.444 143.64H152.52C150.608 143.64 149.058 145.171 149.058 147.06C149.058 148.949 150.608 150.48 152.52 150.48H241.444C243.357 150.48 244.907 148.949 244.907 147.06C244.907 145.171 243.357 143.64 241.444 143.64Z" fill="#E1E4E5"/>
<path d="M241.444 159.48H152.52C150.608 159.48 149.058 161.011 149.058 162.9C149.058 164.789 150.608 166.32 152.52 166.32H241.444C243.357 166.32 244.907 164.789 244.907 162.9C244.907 161.011 243.357 159.48 241.444 159.48Z" fill="#E1E4E5"/>
<path d="M257.116 144H210.831C206.705 144 203.36 147.304 203.36 151.38C203.36 155.456 206.705 158.76 210.831 158.76H257.116C261.242 158.76 264.587 155.456 264.587 151.38C264.587 147.304 261.242 144 257.116 144Z" fill="white" stroke="#E1E4E5" stroke-width="4" stroke-linecap="round" stroke-linejoin="round"/>
<path d="M257.116 158.76H210.831C206.705 158.76 203.36 162.064 203.36 166.14C203.36 170.216 206.705 173.52 210.831 173.52H257.116C261.242 173.52 264.587 170.216 264.587 166.14C264.587 162.064 261.242 158.76 257.116 158.76Z" fill="white" stroke="#E1E4E5" stroke-width="4" stroke-linecap="round" stroke-linejoin="round"/>
<path d="M257.116 173.52H210.831C206.705 173.52 203.36 176.824 203.36 180.9C203.36 184.976 206.705 188.28 210.831 188.28H257.116C261.242 188.28 264.587 184.976 264.587 180.9C264.587 176.824 261.242 173.52 257.116 173.52Z" fill="white" stroke="#E1E4E5" stroke-width="4" stroke-linecap="round" stroke-linejoin="round"/>
<path d="M235.613 151.56C251.011 151.56 263.493 139.23 263.493 124.02C263.493 108.81 251.011 96.48 235.613 96.48C220.216 96.48 207.733 108.81 207.733 124.02C207.733 139.23 220.216 151.56 235.613 151.56Z" fill="#141517"/>
<path fill-rule="evenodd" clip-rule="evenodd" d="M243.94 122.917C243.94 128.069 239.712 132.245 234.497 132.245C229.282 132.245 225.054 128.069 225.054 122.917C225.054 117.766 229.282 113.59 234.497 113.59C239.712 113.59 243.94 117.766 243.94 122.917Z" fill="#141517" stroke="white" stroke-width="7" stroke-linecap="round" stroke-linejoin="round"/>
<path fill-rule="evenodd" clip-rule="evenodd" d="M246 134.28L241.965 130.295L246 134.28Z" fill="#141517"/>
<path d="M246 134.28L241.965 130.295" stroke="white" stroke-width="7" stroke-linecap="round" stroke-linejoin="round"/>
<path fill-rule="evenodd" clip-rule="evenodd" d="M62.0554 67.9864H63.1189C63.3758 67.9864 63.5828 68.193 63.5828 68.4446V69.4951C63.5828 69.7493 63.3736 69.9538 63.1189 69.9538H62.0554C61.8003 69.9538 61.5911 69.7471 61.5911 69.4951V68.4446C61.591 68.3844 61.6029 68.3247 61.6262 68.269C61.6495 68.2133 61.6837 68.1627 61.7268 68.1201C61.77 68.0776 61.8212 68.0438 61.8776 68.0209C61.934 67.9979 61.9944 67.9862 62.0554 67.9864ZM65.7425 67.9864H66.8056C67.0607 67.9864 67.2699 68.193 67.2699 68.4446V69.4951C67.2699 69.7493 67.0607 69.9538 66.8056 69.9538H65.7425C65.4874 69.9538 65.2782 69.7471 65.2782 69.4951V68.4446C65.2782 68.193 65.4874 67.9864 65.7425 67.9864ZM69.4314 67.9864H70.4949C70.75 67.9864 70.9592 68.193 70.9592 68.4446V69.4951C70.9592 69.7493 70.75 69.9538 70.4949 69.9538H69.4314C69.3085 69.9533 69.1907 69.9048 69.1038 69.8189C69.0169 69.733 68.9679 69.6166 68.9675 69.4951V68.4446C68.9673 68.3844 68.9792 68.3248 69.0025 68.2691C69.0258 68.2134 69.0599 68.1629 69.103 68.1203C69.1462 68.0777 69.1974 68.0439 69.2537 68.021C69.3101 67.998 69.3705 67.9862 69.4314 67.9864ZM73.1185 67.9864H74.182C74.4371 67.9864 74.6463 68.193 74.6463 68.4446V69.4951C74.6463 69.7493 74.4371 69.9538 74.182 69.9538H73.1185C72.9952 69.9537 72.877 69.9054 72.7897 69.8194C72.7023 69.7335 72.653 69.6169 72.6524 69.4951V68.4446C72.6537 68.3231 72.7033 68.207 72.7905 68.1213C72.8777 68.0356 72.9955 67.9871 73.1185 67.9864ZM76.8056 67.9864H77.869C77.9923 67.9865 78.1104 68.0347 78.1978 68.1206C78.2851 68.2064 78.3345 68.3229 78.3352 68.4446V69.4951C78.3352 69.7493 78.126 69.9538 77.869 69.9538H76.8056C76.5505 69.9538 76.3413 69.7471 76.3413 69.4951V68.4446C76.3413 68.193 76.5505 67.9864 76.8056 67.9864ZM65.8777 71.9575H66.9408C67.1959 71.9575 67.4051 72.1642 67.4051 72.4162V73.4688C67.4051 73.7204 67.1959 73.9271 66.9408 73.9271H65.8774C65.7543 73.927 65.6364 73.8787 65.5494 73.7928C65.4624 73.7068 65.4135 73.5903 65.4134 73.4688V72.4183C65.413 72.3579 65.4248 72.298 65.4479 72.242C65.4711 72.1861 65.5053 72.1352 65.5484 72.0924C65.5916 72.0496 65.6429 72.0156 65.6994 71.9924C65.7559 71.9693 65.8165 71.9574 65.8777 71.9575ZM69.5644 71.9575H70.6279C70.883 71.9575 71.0922 72.1642 71.0922 72.4162V73.4688C71.0922 73.7204 70.883 73.9271 70.6279 73.9271H69.5644C69.4415 73.9266 69.3238 73.8782 69.2369 73.7923C69.15 73.7065 69.101 73.5902 69.1005 73.4688V72.4183C69.1001 72.3579 69.1118 72.298 69.135 72.2421C69.1581 72.1862 69.1923 72.1354 69.2354 72.0925C69.2785 72.0497 69.3298 72.0157 69.3863 71.9925C69.4427 71.9694 69.5033 71.9575 69.5644 71.9575ZM73.2515 71.9575H74.315C74.4383 71.9576 74.5565 72.0059 74.6438 72.0918C74.7312 72.1778 74.7805 72.2944 74.7811 72.4162V73.4688C74.7804 73.5905 74.731 73.707 74.6437 73.7929C74.5564 73.8787 74.4382 73.927 74.315 73.9271H73.2515C72.9964 73.9271 72.7872 73.7204 72.7872 73.4688V72.4183C72.7872 72.1642 72.9964 71.9575 73.2515 71.9575ZM69.4314 63.72H70.4949C70.75 63.72 70.9592 63.9266 70.9592 64.1786V65.2288C70.9592 65.4829 70.75 65.6874 70.4949 65.6874H69.4314C69.3085 65.6869 69.1907 65.6384 69.1038 65.5525C69.0169 65.4666 68.9679 65.3502 68.9675 65.2288V64.1786C68.9673 64.1184 68.9792 64.0587 69.0024 64.003C69.0256 63.9473 69.0598 63.8967 69.1029 63.854C69.146 63.8114 69.1972 63.7776 69.2536 63.7546C69.31 63.7316 69.3704 63.7199 69.4314 63.72ZM73.1185 63.72H74.182C74.4371 63.72 74.6463 63.9266 74.6463 64.1786V65.2288C74.6463 65.4829 74.4371 65.6874 74.182 65.6874H73.1185C72.9952 65.6873 72.877 65.639 72.7897 65.5531C72.7023 65.4671 72.653 65.3505 72.6524 65.2288V64.1786C72.6546 63.9266 72.8638 63.72 73.1185 63.72ZM256.668 67.2664H257.732C257.989 67.2664 258.196 67.473 258.196 67.7246V68.7751C258.196 69.0293 257.987 69.2338 257.732 69.2338H256.668C256.545 69.2333 256.428 69.1848 256.341 69.0989C256.254 69.013 256.205 68.8966 256.204 68.7751V67.7246C256.204 67.6644 256.216 67.6048 256.239 67.5491C256.263 67.4934 256.297 67.4429 256.34 67.4003C256.383 67.3577 256.434 67.3239 256.491 67.301C256.547 67.278 256.607 67.2662 256.668 67.2664ZM260.355 67.2664H261.419C261.674 67.2664 261.883 67.473 261.883 67.7246V68.7751C261.883 69.0293 261.674 69.2338 261.419 69.2338H260.355C260.233 69.2333 260.115 69.1848 260.028 69.0989C259.941 69.013 259.892 68.8966 259.892 68.7751V67.7246C259.892 67.473 260.101 67.2664 260.355 67.2664ZM264.045 67.2664H265.108C265.363 67.2664 265.572 67.473 265.572 67.7246V68.7751C265.572 69.0293 265.363 69.2338 265.108 69.2338H264.045C263.79 69.2338 263.58 69.0271 263.58 68.7751V67.7246C263.58 67.6644 263.592 67.6047 263.616 67.549C263.639 67.4933 263.673 67.4427 263.716 67.4001C263.759 67.3576 263.811 67.3238 263.867 67.3009C263.923 67.2779 263.984 67.2662 264.045 67.2664ZM267.732 67.2664H268.795C269.05 67.2664 269.259 67.473 269.259 67.7246V68.7751C269.259 69.0293 269.05 69.2338 268.795 69.2338H267.732C267.609 69.2338 267.49 69.1855 267.403 69.0996C267.315 69.0136 267.266 68.897 267.265 68.7751V67.7246C267.267 67.6031 267.316 67.487 267.404 67.4013C267.491 67.3156 267.609 67.2671 267.732 67.2664ZM271.419 67.2664H272.482C272.739 67.2664 272.949 67.473 272.949 67.7246V68.7751C272.949 69.0293 272.739 69.2338 272.482 69.2338H271.419C271.296 69.2333 271.178 69.1848 271.091 69.0989C271.004 69.013 270.955 68.8966 270.955 68.7751V67.7246C270.955 67.473 271.164 67.2664 271.419 67.2664ZM260.491 71.2375H261.554C261.809 71.2375 262.018 71.4442 262.018 71.6962V72.7488C262.018 73.0004 261.809 73.2071 261.554 73.2071H260.491C260.368 73.207 260.25 73.1587 260.163 73.0728C260.076 72.9869 260.027 72.8703 260.026 72.7488V71.6983C260.026 71.6379 260.038 71.578 260.061 71.522C260.084 71.4661 260.118 71.4152 260.161 71.3724C260.205 71.3296 260.256 71.2956 260.312 71.2724C260.369 71.2493 260.43 71.2374 260.491 71.2375ZM264.178 71.2375H265.241C265.496 71.2375 265.705 71.4442 265.705 71.6962V72.7488C265.705 73.0004 265.496 73.2071 265.241 73.2071H264.178C263.923 73.2071 263.713 73.0004 263.713 72.7488V71.6983C263.713 71.6379 263.725 71.578 263.748 71.522C263.771 71.4661 263.805 71.4152 263.848 71.3724C263.892 71.3296 263.943 71.2956 263.999 71.2724C264.056 71.2493 264.117 71.2374 264.178 71.2375ZM267.865 71.2375H268.928C269.185 71.2375 269.394 71.4442 269.394 71.6962V72.7488C269.394 72.8706 269.344 72.9871 269.257 73.073C269.17 73.1589 269.051 73.2071 268.928 73.2071H267.865C267.61 73.2071 267.401 73.0004 267.401 72.7488V71.6983C267.401 71.4442 267.61 71.2375 267.865 71.2375ZM264.045 63H265.108C265.363 63 265.572 63.2066 265.572 63.4586V64.5088C265.572 64.7629 265.363 64.9674 265.108 64.9674H264.045C263.79 64.9674 263.58 64.7608 263.58 64.5088V63.4586C263.58 63.3984 263.592 63.3386 263.615 63.2829C263.639 63.2272 263.673 63.1765 263.716 63.1339C263.759 63.0913 263.81 63.0575 263.867 63.0345C263.923 63.0115 263.984 62.9998 264.045 63ZM267.732 63H268.795C269.05 63 269.259 63.2066 269.259 63.4586V64.5088C269.259 64.7629 269.05 64.9674 268.795 64.9674H267.732C267.609 64.9674 267.49 64.9192 267.403 64.8332C267.315 64.7473 267.266 64.6306 267.265 64.5088V63.4586C267.268 63.2066 267.477 63 267.732 63Z" fill="#E1E4E5"/>
<path d="M53.0945 131.607C55.3442 129.664 55.9863 125.761 55.9863 125.761C55.9863 125.761 51.6265 125.466 49.3771 127.41C47.1274 129.353 46.1347 131.869 47.1617 133.029C48.189 134.188 50.844 133.552 53.0945 131.607Z" fill="#E1E4E5"/>
<path d="M129.049 170.711C132.692 170.711 135.645 167.794 135.645 164.195C135.645 160.597 132.692 157.68 129.049 157.68C125.406 157.68 122.453 160.597 122.453 164.195C122.453 167.794 125.406 170.711 129.049 170.711Z" fill="url(#paint1_linear_61_214)"/>
<path fill-rule="evenodd" clip-rule="evenodd" d="M106.053 66.8016V58.1433C106.053 57.9303 106.095 57.7194 106.178 57.5225C106.26 57.3257 106.381 57.1468 106.533 56.9961C106.685 56.8453 106.866 56.7257 107.065 56.644C107.264 56.5623 107.478 56.5202 107.693 56.52H117.533C118.439 56.52 119.173 57.2465 119.173 58.1433V66.8016C119.173 67.0909 119.095 67.375 118.947 67.6244C118.799 67.8738 118.585 68.0796 118.33 68.2204L113.41 70.9258C113.166 71.06 112.892 71.1304 112.613 71.1304C112.334 71.1304 112.06 71.06 111.816 70.9258L106.896 68.2204C106.641 68.0793 106.428 67.8735 106.28 67.6241C106.132 67.3747 106.053 67.0908 106.053 66.8016Z" fill="#E1E4E5"/>
<path d="M109.886 63.6793H115.34M109.886 61.1553H115.34M109.886 66.1309H115.34" stroke="white" stroke-width="2.529" stroke-linecap="round" stroke-linejoin="round"/>
<path d="M51.2723 91.9336L47.3778 88.087L51.2723 84.24L55.1664 88.087L51.2723 91.9336Z" stroke="#E1E4E5" stroke-width="5.673" stroke-linecap="round" stroke-linejoin="round"/>
</g>
<defs>
<linearGradient id="paint0_linear_61_214" x1="171.191" y1="256.644" x2="168.548" y2="-119.05" gradientUnits="userSpaceOnUse">
<stop stop-color="white"/>
<stop offset="1" stop-color="#EEEEEE"/>
</linearGradient>
<linearGradient id="paint1_linear_61_214" x1="129.33" y1="178.017" x2="128.934" y2="143.505" gradientUnits="userSpaceOnUse">
<stop stop-color="white"/>
<stop offset="1" stop-color="#EEEEEE"/>
</linearGradient>
<clipPath id="clip0_61_214">
<rect width="328" height="216" fill="white"/>
</clipPath>
</defs>
</svg>
