<svg width="328" height="216" viewBox="0 0 328 216" fill="none" xmlns="http://www.w3.org/2000/svg">
<g clip-path="url(#clip0_61_112)">
<path d="M127.545 48.8988C162.297 46.9555 198.733 57.0776 193.378 71.7512C188.022 86.4248 222.012 66.5395 235.576 71.8301C245.233 75.5964 241.373 87.062 246.044 91.6823C256.756 102.275 267.712 88.9358 281.345 96.9397C294.978 104.943 267.066 179.643 252.824 180.06L90.3782 179.109L78.7207 178.099C78.7207 178.099 46.4743 161.107 69.5415 145.432C85.1386 134.833 73.9162 127.137 72.2198 122.284C70.2722 116.713 65.7279 106.983 85.5285 99.8431C105.33 92.7029 100.217 77.166 99.7298 73.9494C99.2433 70.7314 92.793 50.8421 127.545 48.8988Z" fill="url(#paint0_linear_61_112)"/>
<path d="M179.307 185.76C246.936 185.76 301.76 183.826 301.76 181.44C301.76 179.054 246.936 177.12 179.307 177.12C111.677 177.12 56.8533 179.054 56.8533 181.44C56.8533 183.826 111.677 185.76 179.307 185.76Z" fill="url(#paint1_linear_61_112)"/>
<path d="M69.684 152.611C69.684 152.611 76.4503 140.255 94.1681 128.201C106.677 119.69 112.749 97.7263 112.749 97.7263C112.749 97.7263 87.8053 100.566 78.0075 116.377C68.2098 132.187 69.684 152.611 69.684 152.611Z" fill="#141517"/>
<path d="M69.6223 152.933C69.7914 152.921 69.9339 152.799 69.9602 152.638C72.5408 139.269 79.5487 129.212 84.9804 123.123C90.8676 116.536 96.1958 113.069 96.2501 113.037C96.4214 112.922 96.4713 112.695 96.3551 112.526C96.328 112.485 96.2931 112.45 96.2524 112.423C96.2117 112.396 96.1659 112.377 96.1178 112.367C96.0696 112.358 96.02 112.357 95.9718 112.367C95.9236 112.376 95.8777 112.395 95.8368 112.422C95.7825 112.454 90.364 115.973 84.4159 122.64C78.9222 128.789 71.8283 138.964 69.2218 152.494C69.212 152.541 69.2119 152.59 69.2215 152.637C69.2311 152.685 69.2503 152.73 69.2779 152.769C69.3055 152.809 69.3409 152.843 69.382 152.869C69.4232 152.895 69.4692 152.913 69.5174 152.921C69.5651 152.927 69.5939 152.934 69.6223 152.933Z" fill="#141517"/>
<path d="M72.9475 152.11C72.9475 152.11 74.8098 147.655 84.6801 148.043C94.5496 148.422 100.375 153.419 117.089 142.52C117.089 142.52 103.256 132.688 89.2735 135.84C75.2807 138.983 74.5773 144.43 72.9475 152.11Z" fill="#141517"/>
<path d="M72.9268 152.476C73.0488 152.467 73.1666 152.394 73.2336 152.277C73.2759 152.208 77.1591 145.099 84.1137 143.339C96.2672 140.26 104.92 143.554 105.008 143.595C105.101 143.63 105.204 143.627 105.294 143.587C105.385 143.548 105.457 143.474 105.494 143.383C105.528 143.293 105.526 143.192 105.488 143.103C105.45 143.013 105.379 142.942 105.289 142.903C105.201 142.871 96.3245 139.481 83.9297 142.623C76.6499 144.462 72.7427 151.629 72.5754 151.931C72.4752 152.115 72.5477 152.334 72.7343 152.433C72.7843 152.467 72.8608 152.481 72.9268 152.476Z" fill="#141517"/>
<path d="M68.5924 151.371C68.5924 151.371 69.107 146.581 60.2484 142.265C51.3899 137.948 43.8597 139.59 34.4407 122.135C34.4407 122.135 51.344 120.02 62.1173 129.385C72.8896 138.731 70.8669 143.852 68.5924 151.371Z" fill="#141517"/>
<path d="M68.6675 151.758C68.8556 151.745 69.0145 151.584 69.0105 151.398C69.0138 151.052 69.0316 142.916 63.5333 137.868C54.1576 129.264 44.7199 128.061 44.6339 128.048C44.5367 128.037 44.439 128.065 44.362 128.124C44.285 128.184 44.2347 128.271 44.2221 128.367C44.2111 128.463 44.2388 128.559 44.2991 128.635C44.3594 128.711 44.4476 128.761 44.5446 128.773C44.6401 128.785 53.8394 129.968 63.0332 138.407C68.2984 143.239 68.2758 151.309 68.2725 151.394C68.2714 151.442 68.28 151.491 68.298 151.536C68.3159 151.581 68.3427 151.622 68.3769 151.657C68.4111 151.692 68.452 151.72 68.4972 151.74C68.5424 151.759 68.591 151.769 68.6402 151.77C68.6395 151.76 68.649 151.759 68.6675 151.758Z" fill="#141517"/>
<path d="M72.8145 184.334C85.678 184.334 93.8641 182.313 92.5514 173.361C91.7179 167.677 87.233 162.116 84.0671 158.804C83.6598 158.379 83.245 157.961 82.8229 157.551C81.6472 156.408 80.8574 155.744 80.8574 155.744L80.8199 155.535L80.5961 154.282L80.3348 152.838L79.7441 149.532L79.5385 148.377L72.8145 148.088L65.7979 148.377L65.6364 149.532L65.3875 151.351L64.9768 154.288L64.8029 155.542L64.7778 155.75C64.7778 155.75 63.988 156.408 62.8123 157.557C62.3918 157.969 61.977 158.387 61.5681 158.81C58.4022 162.116 53.9173 167.683 53.0839 173.367C51.7649 182.313 59.9511 184.334 72.8145 184.334Z" fill="#141517"/>
<path d="M63.1833 150.473H82.6334C83.6749 150.473 84.5277 149.63 84.5277 148.602V147.431C84.5277 146.402 83.6749 145.56 82.6334 145.56H63.1833C62.1417 145.56 61.2889 146.402 61.2889 147.431V148.602C61.2889 149.63 62.1417 150.473 63.1833 150.473Z" fill="#141517"/>
<path d="M60.1333 104.46C60.1333 106.449 58.4193 108.06 56.3023 108.06C54.1852 108.06 52.48 106.442 52.48 104.46C52.48 102.47 54.194 100.86 56.311 100.86C58.4281 100.86 60.1333 102.47 60.1333 104.46Z" stroke="#E1E4E5" stroke-width="5.225" stroke-miterlimit="10"/>
<path d="M83.5765 82.4846C78.0472 87.2572 68.5359 85.4471 68.5359 85.4471C68.5359 85.4471 67.9954 75.8995 73.5292 71.1303C79.0585 66.3577 88.5654 68.1642 88.5654 68.1642C88.5654 68.1642 89.1059 77.7118 83.5765 82.4846Z" fill="url(#paint2_linear_61_112)"/>
<path d="M104.66 53.7363C104.376 54.7836 105.005 55.86 106.066 56.1406C107.126 56.4212 108.215 55.7998 108.5 54.7525C108.784 53.7053 108.154 52.6288 107.094 52.3482C106.034 52.0676 104.944 52.6891 104.66 53.7363Z" fill="#E1E4E5"/>
<path d="M111.879 78.5836C111.594 79.6308 112.224 80.7072 113.284 80.9879C114.344 81.2685 115.434 80.647 115.718 79.5997C116.002 78.5525 115.373 77.4761 114.312 77.1955C113.252 76.9149 112.163 77.5363 111.879 78.5836Z" fill="#E1E4E5"/>
<path d="M151.385 60.1969C151.101 61.2442 151.73 62.3206 152.79 62.6012C153.85 62.8818 154.94 62.2603 155.224 61.2131C155.508 60.1658 154.879 59.0894 153.819 58.8088C152.759 58.5282 151.669 59.1497 151.385 60.1969Z" fill="#E1E4E5"/>
<path d="M223.003 103.449C222.817 104.137 223.23 104.844 223.927 105.029C224.623 105.213 225.339 104.805 225.526 104.117C225.712 103.429 225.299 102.721 224.602 102.537C223.906 102.353 223.19 102.761 223.003 103.449Z" fill="#E1E4E5"/>
<path d="M223.555 134.736C223.27 135.784 223.9 136.86 224.96 137.141C226.02 137.421 227.11 136.8 227.394 135.753C227.678 134.705 227.049 133.629 225.988 133.348C224.928 133.068 223.839 133.689 223.555 134.736Z" fill="#E1E4E5"/>
<path d="M239.226 123.216C238.942 124.264 239.571 125.34 240.631 125.621C241.691 125.901 242.781 125.28 243.065 124.232C243.349 123.185 242.72 122.109 241.66 121.828C240.599 121.548 239.51 122.169 239.226 123.216Z" fill="#E1E4E5"/>
<path d="M211.378 81.5875V88.5856L204.983 96.1146H231.846C239.966 96.1146 246.553 89.6087 246.553 81.5875C246.553 73.5667 239.966 67.0608 231.846 67.0608H226.085C217.96 67.0608 211.378 73.5667 211.378 81.5875Z" fill="#E1E4E5"/>
<path d="M222.711 81.563C222.711 82.2479 222.435 82.9046 221.945 83.3889C221.455 83.8732 220.79 84.1454 220.096 84.1457C219.403 84.1453 218.738 83.8731 218.248 83.3888C217.758 82.9046 217.482 82.2479 217.482 81.563C217.482 80.8782 217.758 80.2215 218.248 79.7373C218.738 79.253 219.403 78.9808 220.096 78.9804C220.79 78.9807 221.455 79.2529 221.945 79.7372C222.435 80.2214 222.711 80.8782 222.711 81.563ZM231.595 81.5627C231.595 82.2475 231.319 82.9043 230.829 83.3885C230.339 83.8728 229.674 84.145 228.981 84.1453C228.287 84.145 227.623 83.8728 227.132 83.3886C226.642 82.9043 226.367 82.2476 226.366 81.5627C226.367 80.8778 226.642 80.2211 227.132 79.7368C227.623 79.2525 228.287 78.9803 228.981 78.98C229.674 78.9804 230.339 79.2527 230.829 79.7369C231.319 80.2212 231.595 80.8779 231.595 81.5627ZM240.479 81.5627C240.479 82.2476 240.203 82.9043 239.713 83.3886C239.223 83.8728 238.558 84.145 237.865 84.1453C237.171 84.145 236.507 83.8728 236.016 83.3886C235.526 82.9043 235.251 82.2476 235.25 81.5627C235.251 80.8778 235.526 80.2212 236.016 79.7369C236.507 79.2526 237.172 78.9804 237.865 78.98C238.558 78.9803 239.223 79.2525 239.713 79.7368C240.203 80.2211 240.479 80.8778 240.479 81.5627Z" fill="white"/>
<path d="M233.485 158.712L228.357 160.693L228.682 155.263L233.809 153.284L233.485 158.712V158.712Z" stroke="#E1E4E5" stroke-width="4.267" stroke-linecap="round" stroke-linejoin="round"/>
<path fill-rule="evenodd" clip-rule="evenodd" d="M120.631 59.9317V46.1448C120.631 44.7167 121.8 43.56 123.242 43.56H138.911C140.354 43.56 141.523 44.7167 141.523 46.1448V59.9317C141.523 60.3924 141.398 60.8448 141.162 61.2421C140.926 61.6393 140.586 61.9669 140.179 62.1911L132.345 66.4988C131.957 66.7124 131.52 66.8244 131.076 66.8244C130.632 66.8244 130.196 66.7124 129.808 66.4988L121.973 62.1911C121.566 61.9665 121.227 61.6387 120.992 61.2415C120.756 60.8444 120.631 60.3922 120.631 59.9317Z" fill="#E1E4E5"/>
<path d="M126.734 54.9605H135.42M126.734 50.9411H135.42M126.734 58.8636H135.42" stroke="white" stroke-width="3.682" stroke-linecap="round" stroke-linejoin="round"/>
<path d="M245.727 100.759L239.091 107.314C238.849 107.553 238.849 107.94 239.091 108.179C239.332 108.418 239.724 108.418 239.966 108.179L246.602 101.624C246.843 101.385 246.843 100.998 246.602 100.759C246.36 100.521 245.968 100.521 245.727 100.759Z" fill="#E1E4E5"/>
<path d="M245.077 105.452L243.163 107.343C242.922 107.582 242.922 107.969 243.163 108.207C243.405 108.446 243.797 108.446 244.039 108.207L245.952 106.317C246.194 106.078 246.194 105.691 245.952 105.452C245.711 105.214 245.319 105.214 245.077 105.452Z" fill="#E1E4E5"/>
<path d="M277.288 81.0273C277.288 81.0273 271.69 79.5434 269.761 92.2197C267.831 104.896 267.817 111.839 267.817 111.839C267.817 111.839 267.109 114.596 265.028 113.63C262.947 112.665 259.365 109.171 256.936 110.811C254.418 112.514 254.539 115.883 256.591 120.218C258.644 124.553 262.785 134.205 263.157 135.083C263.524 135.939 263.448 137.409 261.924 136.975C260.4 136.54 250.623 131.047 248.264 135.783C245.9 140.521 253.627 151.667 254.447 152.899C255.267 154.132 255.197 154.801 254.66 155.351C254.123 155.901 251.011 153.748 248.167 152.296C245.324 150.844 241.765 149.658 240.635 152.504C239.504 155.35 242.021 164.793 255.994 176.87L262.839 182.048L270.89 178.897C287.703 171.118 292.771 162.731 292.482 159.688C292.192 156.645 288.442 156.811 285.301 157.427C282.159 158.044 278.566 159.26 278.204 158.584C277.841 157.908 277.958 157.248 279.093 156.287C280.227 155.325 290.776 146.734 289.834 141.532C288.893 136.335 277.958 138.937 276.372 138.933C274.787 138.933 275.13 137.503 275.721 136.779C276.324 136.04 283.015 127.897 286.2 124.292C289.387 120.693 290.448 117.486 288.505 115.161C286.636 112.916 282.21 115.3 279.941 115.658C277.672 116.016 277.765 113.17 277.765 113.17C277.765 113.17 279.704 106.494 281.402 93.7854C283.099 81.077 277.163 81 277.163 81" fill="#E1E4E5"/>
<path d="M262.696 180.267C263.977 170.938 265.859 158.065 267.991 143.852C270.12 129.646 272.032 116.782 273.37 107.459C274.033 102.808 274.568 99.0393 274.941 96.4217C275.125 95.1272 275.27 94.1188 275.371 93.4197C275.42 93.0867 275.461 92.8278 275.488 92.6388C275.519 92.4653 275.539 92.3721 275.539 92.3721C275.539 92.3721 275.535 92.461 275.517 92.6421C275.495 92.83 275.466 93.0914 275.428 93.4265C275.34 94.1278 275.212 95.1372 275.051 96.4368C274.721 99.0486 274.217 102.825 273.573 107.488C272.292 116.818 270.409 129.685 268.282 143.896C266.155 158.108 264.238 170.973 262.905 180.295" fill="white"/>
<path d="M261.749 115.904C261.768 115.893 261.903 116.061 262.147 116.383C262.389 116.699 262.723 117.168 263.126 117.75C263.934 118.92 265.009 120.559 266.161 122.398C267.282 124.207 268.301 125.844 269.085 127.109C269.437 127.666 269.733 128.139 269.979 128.531C270.193 128.866 270.3 129.058 270.281 129.069C270.261 129.079 270.121 128.912 269.879 128.596C269.643 128.278 269.309 127.81 268.909 127.221C268.11 126.044 267.058 124.388 265.913 122.552L262.956 117.866C262.604 117.309 262.304 116.838 262.058 116.445C261.843 116.105 261.735 115.913 261.749 115.904ZM271.078 128.962C271.032 128.897 274.359 126.556 278.512 123.742C282.664 120.924 286.071 118.693 286.117 118.759C286.162 118.824 282.834 121.16 278.682 123.979C274.525 126.798 271.123 129.028 271.078 128.962ZM266.814 150.641C266.808 150.62 267.021 150.542 267.403 150.407C267.849 150.262 268.398 150.083 269.043 149.869C270.426 149.414 272.34 148.775 274.423 147.998C276.507 147.226 278.37 146.463 279.719 145.902C280.346 145.642 280.877 145.419 281.313 145.237C281.69 145.083 281.904 145.009 281.913 145.023C281.924 145.043 281.725 145.151 281.363 145.34C280.848 145.601 280.328 145.85 279.803 146.089C278.073 146.88 276.314 147.607 274.529 148.268C272.744 148.93 270.935 149.528 269.106 150.061C268.402 150.264 267.83 150.416 267.438 150.514C267.041 150.614 266.819 150.661 266.814 150.641ZM255.747 140.66C255.76 140.645 255.927 140.767 256.225 141.002C256.518 141.239 256.935 141.585 257.449 142.017C258.783 143.149 260.107 144.292 261.421 145.448C262.737 146.601 264.042 147.766 265.337 148.942C265.731 149.299 266.119 149.661 266.503 150.028C266.774 150.287 266.916 150.442 266.903 150.457C266.89 150.471 266.724 150.35 266.425 150.115C266.132 149.878 265.715 149.531 265.201 149.099C263.867 147.968 262.543 146.824 261.23 145.669C259.691 144.318 258.307 143.08 257.318 142.173C256.925 141.817 256.536 141.455 256.153 141.087C255.877 140.829 255.729 140.676 255.747 140.66ZM249.521 159.324C249.534 159.309 249.75 159.467 250.127 159.77C250.544 160.111 251.074 160.545 251.701 161.068C253.022 162.173 254.835 163.711 256.824 165.428C258.813 167.145 260.605 168.71 261.891 169.852C262.497 170.397 263.006 170.858 263.406 171.221C263.757 171.547 263.948 171.738 263.936 171.753C263.923 171.768 263.707 171.609 263.329 171.307C262.913 170.965 262.382 170.532 261.755 170.01C260.037 168.569 258.329 167.115 256.633 165.649C254.934 164.185 253.245 162.71 251.565 161.225C250.96 160.68 250.45 160.219 250.05 159.856C249.694 159.531 249.508 159.339 249.521 159.324ZM263.673 171.359C263.668 171.339 263.934 171.23 264.414 171.047C264.952 170.85 265.642 170.596 266.47 170.294C268.204 169.653 270.603 168.764 273.218 167.708C275.453 166.808 277.674 165.871 279.878 164.899C280.547 164.608 281.215 164.315 281.882 164.021C282.358 163.818 282.624 163.709 282.635 163.728C282.645 163.747 282.393 163.886 281.933 164.123C281.472 164.361 280.798 164.693 279.962 165.086C277.78 166.113 275.568 167.077 273.33 167.977C271.091 168.878 268.826 169.714 266.538 170.485C265.845 170.719 265.149 170.942 264.449 171.154C263.958 171.301 263.682 171.373 263.673 171.359Z" fill="white"/>
<path d="M260.189 92.16H260.237C260.519 95.9461 263.493 96.0044 263.493 96.0044C263.493 96.0044 260.213 96.0653 260.213 100.44C260.213 96.0653 256.933 96.0044 256.933 96.0044C256.933 96.0044 259.906 95.9461 260.189 92.16Z" fill="#E1E4E5"/>
<path d="M167.17 91.9753L161.657 111.883L163.624 109.647C162.897 110.029 162.053 110.323 161.119 110.531C160.186 110.739 159.17 110.858 158.107 110.913C157.044 110.969 155.938 110.96 154.802 110.913C153.67 110.867 152.513 110.782 151.338 110.684H151.333C150.501 110.614 149.674 110.873 149.035 111.405C148.396 111.937 147.997 112.697 147.925 113.519C147.783 115.152 148.958 116.597 150.568 116.856C151.781 117.048 153.012 117.226 154.277 117.371C155.542 117.515 156.838 117.621 158.18 117.651C159.523 117.681 160.913 117.63 162.35 117.426C163.783 117.222 165.272 116.852 166.727 116.231C167.17 116.043 167.567 115.765 167.893 115.415C168.219 115.065 168.467 114.651 168.62 114.2L168.689 113.991L175.304 94.4111C176.048 92.2093 174.843 89.833 172.614 89.0975C170.385 88.362 167.979 89.5525 167.235 91.7543C167.213 91.8267 167.187 91.9073 167.17 91.9753Z" fill="#F8AE9D"/>
<path d="M195.751 116.212C195.751 116.212 195.964 119.16 193.827 119.939L171.588 120.785C171.588 120.785 170.094 119.353 170.388 115.919C170.388 115.911 179.839 106.386 195.751 116.212Z" fill="#141517"/>
<path d="M179.422 119.322C179.495 119.883 179.745 120.312 179.982 120.278C180.214 120.249 180.348 119.768 180.274 119.211C180.201 118.65 179.951 118.221 179.715 118.255C179.478 118.284 179.349 118.765 179.422 119.322Z" fill="#B55E63"/>
<path d="M169.967 112.328V112.357C169.976 112.44 169.981 112.526 169.985 112.617C170.007 112.962 170.024 113.377 170.037 113.848C170.051 114.228 170.055 114.643 170.059 115.088C170.059 115.42 170.064 115.766 170.064 116.124C176.387 113.424 189.319 115.343 194.525 116.28C194.473 116.021 194.425 115.766 194.376 115.515C194.341 115.33 194.311 115.148 194.276 114.967C193.931 112.992 193.747 111.217 193.687 109.632L193.673 109.209C193.621 106.854 193.879 103.506 194.403 100.059C194.438 99.8215 194.477 99.5839 194.512 99.3506L194.59 98.8841C194.781 97.7392 195.004 96.5998 195.259 95.4673C195.346 95.0872 195.42 94.7027 195.481 94.3225C195.551 93.8991 195.604 93.4758 195.643 93.0567C195.739 91.994 195.73 90.9572 195.59 89.9939C195.341 88.2788 194.665 86.8017 193.411 85.8513C192.704 85.3157 191.809 84.9442 190.699 84.7973C190.337 84.7498 189.979 84.7022 189.634 84.6633C188.546 84.5337 187.546 84.443 186.734 84.3782C186.467 84.3566 186.218 84.3393 185.996 84.3221C185.428 84.2832 185.008 84.2573 184.803 84.2486C184.754 84.2466 184.704 84.2437 184.655 84.24L174.946 86.8968L174.02 87.1474C173.627 87.2683 173.256 87.385 172.911 87.4973C172.055 87.7781 171.326 88.0459 170.697 88.3091C169.919 88.6374 169.299 88.9571 168.81 89.294C166.67 90.7585 166.976 92.4476 166.984 95.774V96.003C166.984 96.2535 166.98 96.5037 166.972 96.7543C166.963 97.0697 166.945 97.3807 166.919 97.6917C166.875 98.3181 167.252 98.9294 167.173 99.5429C168.191 103.86 168.446 105.3 168.81 108C169.126 110.34 169.064 111.671 169.727 112.155C169.876 112.267 169.967 112.328 169.967 112.328Z" fill="#141517"/>
<path d="M184.444 84.7105C184.444 84.7105 183.588 87.9113 180.352 88.7998C176.238 89.9262 175.618 88.5618 175.618 88.5618C175.72 87.9824 175.758 87.3936 175.73 86.8061C175.719 86.5717 175.701 86.3378 175.674 86.1048C175.601 85.45 175.463 84.7361 175.269 83.9196C175.226 83.7284 175.175 83.5286 175.123 83.3245L175.119 83.299C177.933 82.2535 180.141 80.6846 181.492 78.3637L181.892 78.0534L182.164 77.841L182.241 78.0023L182.254 78.5423C182.31 81.0799 182.745 82.5808 184.444 84.7105Z" fill="#F8AE9D"/>
<path d="M165.048 164.152C165.13 164.152 165.212 164.14 165.294 164.11L194.17 153.827C194.347 153.758 194.49 153.624 194.568 153.453C194.646 153.282 194.654 153.088 194.589 152.911C194.525 152.735 194.394 152.59 194.223 152.508C194.052 152.426 193.856 152.412 193.675 152.471L164.799 162.754C164.637 162.811 164.501 162.924 164.415 163.071C164.329 163.217 164.298 163.39 164.328 163.557C164.358 163.724 164.447 163.875 164.578 163.984C164.71 164.093 164.877 164.153 165.048 164.152Z" fill="#141517"/>
<path d="M195.121 164.153C195.293 164.152 195.458 164.092 195.589 163.983C195.72 163.874 195.808 163.722 195.838 163.555C195.867 163.388 195.836 163.217 195.75 163.07C195.664 162.924 195.528 162.812 195.367 162.754L166.146 152.301C165.966 152.242 165.769 152.254 165.598 152.336C165.426 152.418 165.294 152.563 165.229 152.739C165.164 152.916 165.172 153.11 165.25 153.282C165.328 153.453 165.47 153.588 165.647 153.657L194.867 164.11C194.958 164.14 195.039 164.153 195.121 164.153Z" fill="#141517"/>
<path d="M162.48 182.529C162.781 182.529 163.072 182.42 163.299 182.224C163.526 182.028 163.674 181.757 163.715 181.462L168.93 142.996H190.753L195.887 181.462C195.908 181.623 195.961 181.777 196.043 181.918C196.125 182.058 196.234 182.18 196.364 182.279C196.494 182.377 196.642 182.449 196.8 182.491C196.959 182.532 197.124 182.543 197.286 182.521C197.448 182.5 197.605 182.448 197.746 182.367C197.888 182.286 198.013 182.178 198.112 182.05C198.212 181.922 198.285 181.775 198.327 181.619C198.369 181.463 198.379 181.3 198.357 181.139L193.081 141.601C193.042 141.305 192.895 141.033 192.668 140.836C192.44 140.639 192.148 140.53 191.846 140.53H167.837C167.535 140.53 167.244 140.638 167.016 140.834C166.789 141.03 166.642 141.301 166.602 141.597L161.24 181.135C161.197 181.459 161.285 181.787 161.486 182.047C161.687 182.307 161.984 182.477 162.312 182.521C162.368 182.529 162.423 182.529 162.48 182.529Z" fill="#141517"/>
<path d="M174.792 141.763H190.383C195.323 141.763 200.612 139.093 201.37 134.268C202.326 128.175 202.654 122.003 202.351 115.844C202.032 109.362 198.9 103.334 193.74 99.3168C193.74 99.3168 190.624 112.724 194.54 131.233C193.051 138.268 174.792 141.763 174.792 141.763Z" fill="#141517"/>
<path d="M138.716 166.048H145.679C145.679 166.048 147.293 158.414 147.831 154.129C148.373 149.848 148.653 139.697 148.653 139.697C148.653 139.697 154.204 141.478 165.823 140.806C191.567 139.323 181.806 120.64 181.806 120.64C180.937 121.825 175.609 121.005 171.969 121.571C160.793 122.629 151.097 126.965 145.283 129.443C143.88 130.038 142.636 130.672 141.548 131.335C140.145 132.189 139.267 134.778 138.737 138.187C137.145 148.428 138.716 166.048 138.716 166.048Z" fill="#141517"/>
<path d="M138.909 174.861H143.824L144.771 169.165L145.287 166.049H139.181L139.086 169.165L138.909 174.861Z" fill="#F8AE9D"/>
<path d="M138.909 174.861H143.824L144.53 170.618L144.771 169.164H139.086L139.038 170.673L138.909 174.861Z" fill="url(#paint3_linear_61_112)"/>
<path d="M126.778 182.53H145.373C145.511 182.283 145.589 181.93 145.619 181.509C145.735 179.954 145.236 177.475 144.986 175.911C144.956 175.728 144.93 175.558 144.909 175.405C144.874 175.141 144.852 174.925 144.852 174.767C144.852 173.492 143.708 173.709 143.708 173.709C141.827 175.532 139.697 172.799 138.454 173.696C138.454 173.696 138.402 173.734 138.29 173.819C138.186 173.9 138.027 174.028 137.808 174.21C137.489 174.474 137.046 174.852 136.444 175.388C134.968 176.701 132.459 177.565 130.32 178.449C130.049 178.559 129.795 178.674 129.558 178.784C129.382 178.87 129.214 178.955 129.055 179.04C127.307 179.97 126.752 180.863 126.627 181.509C126.503 182.134 126.778 182.53 126.778 182.53Z" fill="#141517"/>
<path d="M126.778 182.53H145.373C145.511 182.283 145.589 181.93 145.619 181.509H126.627C126.503 182.134 126.778 182.53 126.778 182.53Z" fill="#141517"/>
<path d="M185.592 89.7746L179.41 112.289L181.614 109.76C180.799 110.194 179.853 110.523 178.808 110.76C177.762 110.993 176.62 111.131 175.433 111.189C174.241 111.252 172.999 111.239 171.727 111.189C170.456 111.135 169.159 111.043 167.842 110.931H167.834C165.889 110.764 164.178 112.202 164.011 114.138C163.852 115.984 165.169 117.621 166.976 117.912C168.335 118.129 169.72 118.333 171.137 118.495C172.555 118.658 174.011 118.783 175.516 118.816C177.022 118.85 178.582 118.791 180.192 118.558C181.802 118.325 183.471 117.908 185.102 117.208C186.148 116.758 186.888 115.904 187.227 114.913L187.306 114.68L194.717 92.5322C195.55 90.041 194.203 87.3543 191.702 86.5213C189.205 85.6922 186.503 87.0336 185.667 89.5244C185.642 89.6036 185.612 89.6994 185.592 89.7746Z" fill="#F8AE9D"/>
<path d="M150.843 166.07H157.806C157.806 166.07 159.42 158.435 159.958 154.15C160.5 149.869 160.78 139.718 160.78 139.718C160.78 139.718 166.331 141.499 177.95 140.827C203.694 139.344 193.933 120.661 193.933 120.661C193.064 121.847 186.54 123.484 182.899 124.049C171.723 125.107 163.224 126.982 157.41 129.465C156.007 130.06 154.764 130.693 153.675 131.356C152.272 132.211 151.394 134.799 150.864 138.209C149.268 148.449 150.843 166.07 150.843 166.07Z" fill="#141517"/>
<path d="M151.032 174.886H155.951L156.898 169.19L157.414 166.069H151.308L151.209 169.19L151.032 174.886Z" fill="#F8AE9D"/>
<path d="M151.032 174.886H155.951L156.652 170.644L156.898 169.19H151.209L151.161 170.699L151.032 174.886Z" fill="url(#paint4_linear_61_112)"/>
<path d="M138.901 182.555H157.496C157.634 182.308 157.711 181.955 157.741 181.534C157.858 179.979 157.358 177.5 157.109 175.936C157.079 175.753 157.053 175.583 157.032 175.43C156.997 175.167 156.975 174.95 156.975 174.792C156.975 173.517 155.831 173.734 155.831 173.734C153.95 175.558 151.82 172.824 150.576 173.721C150.576 173.721 150.525 173.759 150.413 173.844C150.309 173.925 150.15 174.053 149.931 174.236C149.612 174.499 149.169 174.878 148.567 175.413C147.091 176.726 144.581 177.589 142.443 178.474C142.172 178.584 141.918 178.699 141.681 178.809C141.505 178.894 141.337 178.98 141.177 179.065C139.43 179.996 138.875 180.888 138.75 181.534C138.63 182.155 138.901 182.555 138.901 182.555Z" fill="#141517"/>
<path d="M138.901 182.555H157.496C157.634 182.308 157.711 181.955 157.741 181.534H138.75C138.63 182.155 138.901 182.555 138.901 182.555Z" fill="#141517"/>
<path d="M112.785 120.42V122.328C112.785 123.427 113.469 124.315 114.318 124.315H220.824C221.669 124.315 222.356 123.427 222.356 122.328V120.42C222.356 119.325 221.673 118.432 220.824 118.432H114.318C113.473 118.438 112.785 119.325 112.785 120.42Z" fill="#E1E4E5"/>
<path d="M118.231 127.027H214.099C214.529 127.027 214.878 126.747 214.878 126.398V123.087H117.457V126.398C117.457 126.747 117.805 127.027 118.231 127.027ZM219.281 183.035L205.699 127.42H210.471L224.049 183.035H219.281ZM126.249 183.035L139.83 127.42H135.062L121.481 183.035H126.249Z" fill="#E1E4E5"/>
<path d="M125.672 89.3016L130.664 110.157L130.798 110.705L131.133 112.108C131.204 112.403 131.373 112.666 131.613 112.854C131.854 113.043 132.152 113.145 132.459 113.145H166.09C166.968 113.145 167.622 112.333 167.42 111.487L161.959 88.681C161.888 88.3858 161.719 88.1228 161.479 87.9346C161.238 87.7463 160.94 87.6439 160.633 87.6438H127.002C126.12 87.6478 125.47 88.4599 125.672 89.3016Z" fill="#141517"/>
<path d="M142.012 101.289C142.172 102.726 143.48 103.887 144.934 103.887C146.389 103.887 147.435 102.722 147.275 101.289C147.116 99.8525 145.808 98.6922 144.354 98.6922C142.899 98.6922 141.853 99.8525 142.012 101.289Z" fill="white"/>
<path d="M159.295 87.6478L165.109 113.149H166.09C166.968 113.149 167.618 112.337 167.416 111.491L161.955 88.6849C161.884 88.3898 161.715 88.1268 161.475 87.9385C161.234 87.7503 160.936 87.6478 160.629 87.6478H159.295ZM149.578 112.942L150.5 118.04H147.452L146.53 112.942H149.578Z" fill="#141517"/>
<path d="M154.737 117.58L154.048 116.624C153.926 116.456 153.765 116.318 153.579 116.224C153.392 116.129 153.186 116.08 152.976 116.08H143.737C143.497 116.079 143.262 116.144 143.057 116.267C142.852 116.39 142.685 116.566 142.575 116.777L142.11 117.657C141.891 118.069 142.196 118.558 142.665 118.558H154.225C154.732 118.558 155.029 117.989 154.737 117.58Z" fill="#141517"/>
<path d="M173.66 84.0625C173.66 84.0625 182.973 83.1665 182.318 77.4457C181.664 71.725 182.424 67.7563 176.451 68.0872C170.478 68.4177 169.572 70.7289 169.321 72.6905C169.07 74.6525 171.221 84.1479 173.66 84.0625Z" fill="#F8AE9D"/>
<path d="M165.822 67.6602C165.822 67.6602 166.783 72.9695 168.612 73.1632C170.442 73.3565 169.786 71.1241 169.786 71.1241L169.293 68.6059L165.822 67.6602Z" fill="#002C54"/>
<path d="M181.65 65.9567C181.406 63.9457 179.266 63.3805 179.266 63.3805C177.12 62.6238 172.884 63.4349 168.567 64.8151C167.55 65.1388 166.197 64.6358 165.523 65.1978C164.709 65.8771 165.836 68.5285 165.836 68.5285C168.024 73.4584 174.124 71.2199 175.948 70.4153C176.522 71.6828 176.638 73.508 177.84 74.3479C178.528 74.8246 179.63 74.7374 180.74 74.4466C180.9 74.6917 181.444 74.875 181.583 75.2209C182.051 76.3787 182.177 78.2446 182.304 79.6788L182.811 79.3714C182.842 78.9732 187.105 65.6197 181.65 65.9567Z" fill="#002C54"/>
<path d="M96.9543 66.96H85.6445C81.6189 66.96 78.3556 70.1836 78.3556 74.16V79.0949C78.3556 83.0713 81.6189 86.2949 85.6445 86.2949H96.9543C100.98 86.2949 104.243 83.0713 104.243 79.0949V74.16C104.243 70.1836 100.98 66.96 96.9543 66.96Z" fill="#141517"/>
<path d="M93.2597 83.5533L92.9981 83.2949C92.0019 82.3108 90.3866 82.3108 89.3903 83.2949L89.1287 83.5533C88.1325 84.5374 88.1325 86.133 89.1287 87.1171L89.3903 87.3755C90.3866 88.3596 92.0019 88.3596 92.9981 87.3755L93.2597 87.1171C94.256 86.133 94.256 84.5374 93.2597 83.5533Z" fill="#141517"/>
<path fill-rule="evenodd" clip-rule="evenodd" d="M93.9356 71.118C96.2003 71.118 97.7185 73.2089 97.7185 75.1561C97.7185 79.1085 91.4144 82.3446 91.2992 82.3446C91.1844 82.3446 84.8802 79.1085 84.8802 75.1561C84.8802 73.2089 86.3985 71.118 88.6632 71.118C89.9577 71.118 90.8079 71.753 91.2992 72.3186C91.7908 71.753 92.6411 71.118 93.9356 71.118Z" fill="white"/>
</g>
<defs>
<linearGradient id="paint0_linear_61_112" x1="177.882" y1="253.731" x2="175.503" y2="-94.3118" gradientUnits="userSpaceOnUse">
<stop stop-color="white"/>
<stop offset="1" stop-color="#EEEEEE"/>
</linearGradient>
<linearGradient id="paint1_linear_61_112" x1="184.528" y1="190.604" x2="184.519" y2="167.718" gradientUnits="userSpaceOnUse">
<stop stop-color="white"/>
<stop offset="1" stop-color="#EEEEEE"/>
</linearGradient>
<linearGradient id="paint2_linear_61_112" x1="61.7441" y1="98.5648" x2="102.623" y2="43.4337" gradientUnits="userSpaceOnUse">
<stop stop-color="white"/>
<stop offset="1" stop-color="#EEEEEE"/>
</linearGradient>
<linearGradient id="paint3_linear_61_112" x1="141.715" y1="178.055" x2="141.886" y2="162.968" gradientUnits="userSpaceOnUse">
<stop stop-color="white"/>
<stop offset="1" stop-color="#EEEEEE"/>
</linearGradient>
<linearGradient id="paint4_linear_61_112" x1="153.84" y1="178.08" x2="154.011" y2="162.993" gradientUnits="userSpaceOnUse">
<stop stop-color="white"/>
<stop offset="1" stop-color="#EEEEEE"/>
</linearGradient>
<clipPath id="clip0_61_112">
<rect width="328" height="216" fill="white"/>
</clipPath>
</defs>
</svg>
